<svg className="fist-svg" width="100%" height="100%" viewBox="0 0 2168 3474" xml:space="preserve" style="fill-rule:evenodd;clip-rule:evenodd;stroke-linejoin:round;stroke-miterlimit:2;">
  <g>
    <path d="M1828.01,413.935l-362.672,-245.958l-252.177,24.191l-43.43,-74.788l-898.744,-0.089c-81.52,180.655 -94.856,370.843 -94.955,569.802l-127.868,293.607c48.271,192.406 68.991,226.77 112.101,411.17c4.79,20.489 66.243,86.45 71.809,107.534c2.354,8.917 81.145,81.732 83.659,90.772c8.542,30.721 249,345.3 258.635,376.02l-36.69,310.495l-172.392,1183.38l1576.1,-0l-111.279,-1229.5l244.273,-528.877l-0,-1112.35l-246.372,-175.411Z" style="fill:#eee5c1;"/>
    <path d="M1716.41,1378.41l-26.297,-22.419l-20.61,-15.939l-4.453,-4.496l-16.15,-12.051l-4.67,-4.788l-16.295,-11.612l-3.801,-4.36l-19.844,-16.118l-4.687,-4.905l-3.681,-4.193l-5.849,-4.79l-11.82,-7.904l-9.033,-12.147l-3.236,-3.671l-16.367,-11.828l-5.105,-5.808l-12.204,-10.689l-11.684,-5.186l-5.457,-5.816l-3.491,-3.047l-3.214,-3.029l-1.889,-8.989l-3.801,-3.612l-2.984,-5.136l-3.686,-3.956l-15.58,-4.409l-5.702,-4.497l-4.438,-3.891l-4.326,-4.541l-3.231,-3.636l-5.417,-4.759l-2.25,-3.164l-5.94,-4.338l-3.642,-4.658l-6.327,-3.827l-1.9,-4.538l-5.35,-4.017l-2.811,-4.135l-12.768,-15.723l-4.416,-4.745l-7.183,-3.811l-12.131,2.616l-10.577,4.728l-7.324,3.698l-12.351,4.899l-10.031,5.641l-2.903,1.788l-6.959,3.96l-4.124,2.136l-9.256,3.675l-4.575,4.967l0.472,21.141l3.532,7.647l0.942,23.886l3.949,42.836l-0.457,8.229l0.134,33.227l4.121,37.158l0.488,19.635l3.774,8.913l0.424,8.794l-5.118,-13.044l-3.811,-12.331l-0.016,-3.72l-3.868,-8.74l-4.467,-7.497l0.563,-4.891l-5.197,-20.279l-6.384,-4.948l-5.238,-8.383l-5.503,-20.388l-3.016,-4.733l-3.391,-4.192l-9.494,-19.272l-4.336,-6.216l-4.385,-12.019l-3.354,-4.141l-3.865,-7.3l-3.617,-8.341l-1.278,-4.6l-4.157,-9.448l-7.441,-11.975l-3.945,-3.568l-8.359,-4.126l-9.186,-4.574l-8.202,-3.811l-7.007,-4.189l-9.413,-3.758l-12.744,-8.181l-7.873,-3.674l-7.889,-4.39l-17.218,-8.469l-16.063,-8.26l-8.83,-4.432l-7.845,-4.555l-18.016,-8.085l-7.684,-4.204l-4.825,-3.759l-18.975,-12.437l-5.784,-3.922l-4.1,-1.756l-16.029,-10.761l-3.751,-0.949l-8.553,-2.764l-4.836,-0.991l-7.384,-4.219l-20.375,-0.256l-26.553,-0.177l-8.312,-6.625l-12.244,-0.363l-8.165,2.073l-4.661,-0.102l-4.024,-2.835l-3.054,-0.035l-8.655,-3.444l-8.924,3.148l-3.333,-0.417l-4.662,-0.035l-13.175,-7.65l-19.104,3.336l-17.605,-3.753l-11.749,-0.264l-20.099,-4.314l-27.593,0.692l-3.376,0.91l-11.895,2.466l-8.793,4.903l-3.308,0.037l-8.688,4.092l-7.537,0.855l-12.907,7.927l-10.333,4.456l-6.168,-0.921l-4.073,4.297l-12.581,4.884l-9.81,4.315l-6.92,3.167l-4.373,3.797l-5.016,0.035l-13.733,4.697l-10.125,4.879l-17.021,11.911l-4.657,2.906l-4.081,0.275l-8.345,5.36l-3.574,3.317l-4.553,1.733l-2.817,2.688l-9.274,5.025l-12.082,7.879l-4.208,0.247l-3.515,3.613l-8.681,3.706l-9.354,4.964l-11.91,8.904l-21.263,11.745l-7.899,4.452l-7.975,4.319l-4.161,3.402l-8.572,4.193l-8.871,3.891l-3.831,3.811l-8.589,4.558l-12.088,8.117l-12.173,8.429l-9.083,4.376l-3.99,4.323l-8.453,4.244l-21.193,8.149l-3.849,7.799l-12.959,8.822l-10.619,5.025l-14.244,12.224l-11.928,8.649l-29.694,19.613l-24.366,19.434l28.468,-24.211l12.646,-10.745l9.929,-9.931l10.249,-6.91l5.399,-8.558l7.079,-4.297l5.725,-4.604l4.024,-8.89l3.996,-3.855l3.862,-3.587l4.282,-4.023l3.822,-3.572l7.871,-5.898l0.943,-2.599l3.86,-4.194l28.767,-33.329l4.98,-5.139l7.883,-7.446l8.287,-13.123l12.651,-15.217l5.04,-9.958l3.987,-3.827l4.395,-8.616l-0.115,-3.122l-7.873,-4.577l-6.229,1.312l-5.274,3.279l-10.927,3.547l-7.601,4.003l-12.213,5.01l-13.19,4.364l-15.696,3.779l-5.656,0.756l-8.128,2.275l16.726,-7.515l4.479,-3.845l13.134,-9.056l3.729,-2.524l11.808,-8.073l4.816,-5.656l3.626,-3.677l13.888,-8.89l3.124,-3.678l3.687,-4.13l5.492,-4.072l5.912,-2.807l5.649,-5.199l4.542,-4.48l4.523,-3.986l2.414,-3.674l12.691,-7.843l5.016,-5.22l4.32,-3.966l4.364,-4.426l3.226,-3.094l5.817,-6.707l17.127,-11.08l8.134,-9.429l3.846,-4.299l3.237,-2.663l11.495,-5.035l4.722,-3.637l4.742,-7.688l3.899,-5.408l3.901,-3.082l5.009,-4.755l3.683,-3.108l4.387,-5.275l3.821,-5.232l3.665,-7.442l-7.513,-5.172l-4.737,5.191l-8.413,0.187l-3.862,0.308l-11.471,3.619l-12.214,0.487l-10.679,3.976l-15.77,0.379l-16.229,3.771l-20.46,0.008l-24.873,3.814l-92.96,-0.101l-11.947,-3.684l-16.371,0.471l24.33,-5.034l8.552,-3.408l9.186,-3.615l3.918,-0.646l6.808,-3.785l7.019,-1.084l3.705,-2.765l2.513,-0.326l3.891,-0.085l6.194,-3.889l3.006,-0.471l7.647,-3.647l4.44,-0.069l8.922,-4.692l3.253,-0.035l5.694,-3.564l2.801,-0.095l4.352,-0.261l3.209,-3.858l4.293,-0l4.314,-0.954l6.817,-3.579l1.949,-0.22l3.253,-0.057l5.2,-3.112l4.208,-0.456l3.48,-0l4.689,-4.093l4.789,-0.127l3.127,-0.357l9.719,-8.061l0,-3.969l-2.903,-4.123l-6.202,-4.84l-0.11,-4.192l-3.414,-8.937l-4.85,-7.876l-4.237,-11.219l-2.877,-6.332l-0.035,-2.952l-5.124,-7.423l-0.028,-6.087l-4.831,-7.229l0.207,-3.722l-4.028,-8.142l-0.167,-6.047l-3.297,-11.145l-0.466,-5.502l-3.04,-7.11l-0.454,-5.954l-0.133,-2.481l-5.1,-13.225l-0.029,-6.291l0.889,-10.483l-4.615,-11.272l0.555,-50.223l4.895,13.031l2.926,8.734l1.536,8.157l1.82,3.092l0.056,2.971l4.937,5.899l0.291,3.384l4.799,5.728l0.307,6.938l2.239,4.213l0.737,5.393l4.037,3.878l-0,3.703l3.865,3.757l4.659,7.957l4.194,8.72l4.348,4.036l3.928,9.062l3.798,3.873l3.467,7.644l4.685,5.269l3.379,2.851l5.555,5.812l3.642,3.519l3.627,3.061l5.677,4.714l3.421,3.585l8.1,4.765l8.206,3.686l64.406,0.539l11.18,-0.127l11.912,-3.362l3.61,-0.117l3.984,-0.343l4.577,-0.447l5.099,0.489l13.049,-0.872l11.625,-2.714l3.744,-0.097l8.316,-0.312l13.404,-4.193l8.625,-0.518l3.167,-0.138l13.287,-3.684l3.796,-0.111l11.587,-3.661l5.334,-0.737l11.562,-3.667l5.671,-0.518l10.661,-4.222l12.465,-3.271l13.589,-4.955l9,-3.523l11.329,-3.771l20.729,-9.294l4.975,-0.002l3.603,-3.889l8.194,-3.618l7.941,-4.508l9.329,-4.495l4.014,-4.234l7.488,-3.43l3.701,-1.396l3.434,-2.765l13.417,-8.278l4.962,-4.644l4.768,-4.903l6.394,-3.566l4.284,-3.645l5.169,-3.479l4.932,-6.038l3.123,-2.912l20.846,-20.321l6.045,-6.011l3.068,-3.955l9.883,-16.447l6.172,-3.837l4.599,-8.042l4.325,-4.502l4.869,-7.707l4.042,-8.966l3.882,-7.627l3.007,-4.72l4.553,-4.743l0.104,-12.287l4.167,-11.962l0.481,-9.578l3.67,-18.614l-3.985,-11.912l-0.84,-4.95l-8.102,-9.368l-7.896,-4.034l-3.649,-0.519l-8.703,-4.246l-4.316,-0.028l-8.395,-3.818l-4.037,-0.446l-7.939,-2.991l-4.711,-0.757l-12.143,-4.276l-5.628,0.496l-11.209,-4.482l-4.152,-0.084l-12.45,-4l-8.393,0.032l-8.645,-3.592l-11.442,-1.341l-13.73,-4.413l-16.21,0.76l-8.523,-3.479l-17.296,-1.469l-24.612,-2.957l-25.025,-0.258l-14.649,-4.257l-121.039,0.174l-9.505,-0.312l-12.361,-0.64l-9.019,-3.65l-6.72,-3.49l-5.262,-3.196l-2.635,-1.359l-9.205,-6.938l-7.758,-5.377l-12.037,-4.841l-7.033,-3.582l-2.297,-0.151l-4.609,-4.543l-3.491,-2.697l-8.022,-4.512l-8.987,-3.6l-8.088,-4.724l-9.679,-4.584l-7.098,-4.034l-16.691,-9.111l-4.251,-3.014l-16.533,-8.838l-8.565,-4.922l-8.38,-3.613l-15.154,-3.257l-17.574,6.354l-17.749,6.533l-8.049,2.945l-11.905,3.623l-8.116,5.425l-5.051,0.05l-12.31,4.725l-7.776,4.246l-8.704,3.775l-8.488,4.177l-7.832,7.436l-12.235,7.68l-25.852,21.901l-11.678,16.252l-5.129,4.655l-11.903,16.41l-3.756,3.712l-5.488,4.174l-7.157,14.005l-4.218,3.646l-5.523,5.292l-1.702,1.676l-9.431,13.666l-3.546,3.165l-7.96,12.4l-5.381,13.251l-11.847,24.78l-12.496,28.986l-8.822,16.948l-7.581,16.858l-4.892,12.177l-3.226,7.79l-4.967,8.699l-3.491,4.762l-4.008,3.557l-0.497,8.508l-5.27,8.691l-2.152,7.415l-5.425,3.318l-0.691,9.704l-4.212,8.657l-3.153,11.484l-7.929,17.208l-4.748,13.603l-3.133,6.446l-3.007,8.292l-5.789,13.113l-4.585,8.768l-4.988,12.289l-3.759,7.902l-3.411,12.73l-4.234,8.081l-4.506,9.027l-3.77,12.555l-4.494,7.092l-7.42,18.208l-4.82,11.684l-5.401,12.178l-3.85,9.876l-3.175,7.104l-0.478,2.578l-3.928,9.678l-0.937,8.191l-3.591,9.293l-0.3,15.693l-3.018,8.307l0.372,41.164l2.373,4.932l0.993,21.34l3.71,3.012l-0.05,9.056l3.868,4.206l0.964,7.922l3.617,4.564l0.308,4.522l0.565,3.177l2.655,3.569l0.82,5.634l3.165,5.617l1.803,6.672l3.29,7.448l3.616,11.694l5.058,12.921l3.509,13.361l3.469,11.999l5.47,8.446l4.593,13.041l3.029,10.372l5.027,13.011l3.655,13.505l3.983,8.328l3.23,12.211l5.453,12.791l3.986,7.704l4.832,12.918l-0.062,11.883l6.627,13.261l5.466,9.445l4.92,14.679l2.859,12.197l3.813,8.936l5.59,17.054l3.177,7.447l15.842,12.586l4.868,4.559l8.65,8.341l7.366,3.772l17.562,17.026l21.183,13.499l3.426,2.819l12.425,8.006l4.791,4.611l12.569,7.785l3.265,4.935l7.944,4.046l4.88,3.783l12.412,7.9l4.047,4.676l12.344,8.732l13.006,8.212l13.29,8.322l12.336,8.451l3.193,4.383l9.495,4.252l3.898,4.875l6.511,2.981l5.619,4.104l6.986,3.763l6.311,5.371l6.454,3.141l4.925,4.412l8.274,4.7l4.187,3.913l12.752,8.024l12.944,8.444l8.296,3.993l4.797,4.745l10.916,5.705l9.31,5.932l12.083,8.123l16.59,8.816l7.438,7.824l10.05,4.805l7.545,3.868l8.896,5.353l6.906,3.096l21.357,11.761l12.861,9.622l27.992,15.247l21.643,13.107l20.421,11.989l13.129,9.196l8.169,4.415l9.174,4.614l11.324,7.033l8.139,4.659l12.481,7.181l8.092,4.527l22.061,13.264l6.849,4.266l9.794,7.602l-9.48,5.581l-4.06,3.202l-11.898,7.833l-13.56,8.506l-11.771,8.485l-8.233,4.428l-8.917,4.841l-8.278,4.037l-7.905,4.024l-7.368,3.465l-9.353,4.856l-8.257,2.626l-12.991,4.719l-11.341,5.21l-8.352,7.66l-0.303,3.465l-0.777,21.112l0.818,9.358l-3.77,24.287l-0.566,13.734l-4.174,8.051l-0.384,32.441l-4.819,24.196l0.326,13.755l-3.463,7.721l0.716,33.825l-5.003,20.299l-0.69,17.175l-3.566,23.144l-0.853,17.834l-4.19,17.142l0.472,19.174l-3.956,14.378l-0.01,24.545l-3.706,8.836l0.092,26.974l-4.637,18.504l-0.155,16.385l-3.903,20.512l-0.271,20.823l-3.021,10.948l-1.215,26.124l-4.542,20.136l0.521,18.256l-3.68,19.177l-0.86,21.353l-3.039,20.789l-0.561,16.629l-3.526,16.792l-0.398,8.918l-0.263,12.668l-3.707,19.401l-0.53,17.901l-3.535,20.107l0.289,17.515l-4.889,20.139l-0.224,16.88l-3.952,20.861l0,17.244l-3.518,23.238l-0.059,17.955l-4.101,16.306l-0.189,21.674l-3.941,19.491l-0.792,14.203l-4.256,27.901l0,13.298l-3.865,19.312l0.09,17.872l-4.767,25.023l0.649,12.363l-3.683,23.469l-0.331,17.606l-4.603,19.302l0.246,17.026l-4.603,13.442l-0.382,22.169l-2.703,22.857l-0.178,13.487l-0.093,9.31l-3.735,13.909l-0.684,17.964l-3.931,24.08l-0.414,13.908l-4.252,23.132l0.092,17.339l-4.154,16.791l0.357,17.455l-3.886,16.318l-0.764,29.954l-3.757,11.048l-0.777,24.957l-3.986,11.368l0.113,25.767l-3.783,16.749l-0.909,21.637l-3.667,11.854l-0.927,25.894l-2.882,9.073l-0.087,26.976l-4.113,17.102l0.335,8.591l0.074,7.348l-7.704,1.593l-9.667,-0.836l-108.021,-0.389l0.89,-8.305l0.277,-7.605l3.945,-16.094l4.001,-25.854l-0,-20.983l4.559,-29.06l3.77,-33.443l3.312,-36.552l4.738,-30.114l0.25,-29.098l3.907,-8.105l0.052,-17.348l-0.072,-3.355l3.28,-10.457l0.863,-22.246l0.813,-4.952l2.466,-7.574l1.13,-17.374l0.165,-12.642l3.312,-7.608l0.515,-25.412l4.362,-23.649l-0.162,-9.2l4.599,-16.026l-1.125,-17.439l5.278,-21.664l0.343,-11.702l3.784,-16.989l-0.125,-16.181l4.266,-19.548l0.274,-14.739l4.056,-14.88l-0.238,-18.529l3.652,-19.303l-0.082,-13.493l4.222,-19.518l0.717,-13.416l3.713,-20.495l-0.217,-17.274l4.274,-16.101l0.342,-16.9l3.557,-16.899l0.308,-16.681l4.071,-15.219l0.848,-13.466l3.072,-17.245l1.035,-20.653l3.467,-14.655l0.592,-15.065l2.507,-19.087l0.306,-14.398l5.101,-23.567l-0.14,-12.223l3.972,-15.922l0.048,-17.732l4.57,-16.188l-0.177,-17.067l3.711,-16.703l0.087,-19.868l3.926,-13.299l-0.265,-20.118l4.736,-11.059l0.449,-21.64l3.293,-13.199l-0.184,-21.228l4.198,-10.871l0.31,-26.93l4.79,-10.365l0.403,-18.686l3.927,-7.843l-0.517,-20.887l4.49,-18.831l0.512,-18.641l3.369,-14.254l0.349,-19.137l4.569,-16.56l-0.582,-20.32l4.157,-12.181l-0.06,-18.737l4.464,-15.248l-0.049,-15.689l3.458,-16.624l0.761,-17.345l2.939,-11.638l0.751,-22.223l4.506,-11.509l-0.052,-5.26l-3.741,-10.642l-0.575,-13.824l-4.338,-15.363l0.616,-9.277l-5.069,-15.616l0.53,-13.856l-3.752,-11.305l-0.955,-12.566l-3.175,-4.175l-4.807,-4.601l-4.222,-4.629l-3.32,-3.096l-9.45,-13.912l-3.989,-4.215l-3.073,-2.918l-4.85,-3.91l-7.839,-13.293l-3.822,-3.512l-4.597,-4.298l-4.438,-4.552l-3.463,-3.931l-13.618,-16.994l-3.821,-4.158l-3.957,-2.885l-5.877,-5.251l-6.815,-12.941l-5.104,-3.681l-3.683,-4.218l-4.072,-3.937l-8.312,-12.239l-12.464,-12.752l-20.32,-29.141l-12.272,-12.631l-12.481,-17.94l-9.604,-10.736l-4.127,-5.395l-2.355,-2.897l-5.752,-8.947l-7.514,-8.259l-3.433,-3.284l-8.451,-10.803l-5.195,-6.525l-8.085,-12.227l-4.867,-4.715l-4.579,-4.427l-3.755,-8.385l-3.34,-3.13l-8.572,-12.58l-4.354,-4.107l-4.395,-4.713l-8.099,-11.284l-7.18,-13.598l-4.838,-3.972l-13.083,-16.221l-8.911,-13.545l-2.748,-3.51l-3.926,-8.132l-8.552,-8.491l-8.911,-16.393l-8.19,-5.428l-8.276,-11.24l-0.401,-8.247l-7.313,-4.085l-9.438,-14.436l-11.498,-18.449l-1.625,-4.566l-4.535,-5.666l0.279,-2.707l-3.594,-4.31l-3.409,-8.546l-0.418,-4.445l-5.227,-4.198l-2.76,-7.929l-0.091,-3.992l-4.386,-7.739l-3.278,-7.428l-4.581,-10.263l-0.929,-4.116l-2.878,-3.4l-1.198,-3.807l-3.458,-5.309l-0.461,-4.438l-3.709,-6.864l-0.18,-4.715l-3.532,-3.965l-3.919,-9.553l-0.247,-3.091l-4.651,-8.459l-4.085,-8.183l-0.59,-5.159l-3.671,-7.613l-3.752,-7.996l-0.426,-4.383l-4.542,-7.256l0.099,-4.128l-2.999,-5.481l-0.643,-3.807l-4.267,-8.828l-0.04,-3.223l-3.961,-8.025l-0.589,-4.625l-3.298,-3.49l-0.937,-4.82l-3.041,-8.261l-1.031,-5.147l-3.506,-6.837l-0.728,-5.949l-4.156,-7.715l-0.38,-3.954l-4.145,-7.775l0.013,-5.46l-4.301,-8.644l0,-2.577l-2.905,-9.469l-1.267,-4.367l-2.571,-8.347l-1.082,-3.374l-3.413,-11.287l-0.09,-4.742l-4.665,-13.28l-3.353,-11.403l-4.672,-15.067l-0.039,-5.725l-3.773,-11.726l-0.272,-43.875l4.333,-10.85l4.175,-13.035l4.315,-8.573l4.932,-12.029l2.647,-12.826l4.289,-8.711l4.372,-12.719l4.242,-8.939l4.793,-11.491l2.979,-3.047l0.411,-4.094l4.169,-8.883l4.368,-8.716l4.008,-8.604l3.968,-8.319l0.052,-3.809l3.073,-3.77l0.839,-4.555l4.401,-3.448l-0,-3.701l4.244,-5.88l0.1,-2.723l3.867,-5.309l0.536,-4.016l3.353,-4.446l0.106,-3.392l3.265,-4.002l0.877,-3.103l4.051,-5.37l0.449,-3.898l3.862,-4.746l4.248,-8.699l4.015,-8.371l4.424,-5.142l0.217,-3.956l3.974,-3.245l4.066,-6.932l4.621,-12.83l0.171,-7.9l-0.219,-22.901l-3.506,-19.502l-0.269,-19.843l-4.994,-21.691l0.22,-22.099l-4.231,-16.361l-0.103,-20.547l-4.642,-19.268l1.375,-9.555l0.071,-12.259l-4.145,-21.748l-0.489,-12.113l-4.66,-24.922l0.023,-7.588l0.652,-12.274l-4.085,-21.687l-0.838,-16.313l0.555,-24.695l3.849,-8.43l3.827,-3.809l4.802,-9.007l-0.107,-4.204l4.132,-4.58l2.973,-2.99l4.405,-9.321l5.303,-7.877l7.419,-12.946l4.698,-8.283l5.005,-7.422l7.371,-12.432l5.641,-9.402l6.612,-10.627l7.583,-9.415l5.699,-16.263l3.736,-5.956l8.441,-15.289l4.817,-10.451l8.801,-9.795l3.075,-9.769l4.414,-8.52l3.066,-2.656l4.583,-9.059l3.903,-7.289l5.044,-3.679l4.311,-8.414l4.267,-9.243l3.969,-5.58l3.124,-6.847l5.101,-8.699l3.881,-7.493l3.658,-5.184l4.41,-7.967l3.257,-2.951l0.833,-5.763l4.014,-4.948l3.579,-7.079l4.71,-4.6l9.766,-3.705l3.229,0l11.388,-4.344l5.209,-0.168l13.123,-4.454l14.951,-3.679l13.175,-3.54l12.143,-4.513l12.436,-3.211l13.004,-5.517l12.535,-3.621l13.321,-4.23l11.531,-3.755l13.221,-4.755l11.897,-4.203l12.071,-3.967l11.924,-4.248l18.926,-4.508l11.035,-4.226l12.315,-3.254l12.544,-4.687l12.462,-4.215l12.181,-4.109l8.275,-5.244l6.989,-3.981l12.919,0l164.104,83.583l8.782,1.695l80.587,-52.358l234.388,-0.562l162.77,128.048l9.539,-0l42.29,-25.233l25.674,-0.218l253.63,50.011l93.811,114.15l216.375,43.848l37.398,61.099l17.834,29.053l21.471,27.473l47.494,55.504l29.316,25.822l68.67,65.676l35.942,51.703l16.467,31.307l11.361,32.815l2.157,47.884l-1.709,36.428l-4.489,17.863l-0.55,10.487l-4.296,16.13l-4.802,23.006l-3.656,22.797l-3.713,17.085l-5.345,20.817l-3.079,16.728l-3.207,19.906l-6.129,16.744l1.355,60.202l3.736,41.034l5.364,37.928l3.674,43.264l3.162,52.661l1.134,186.136l-4.88,55.001l-3.434,30.198l-4.868,25.594l-4.672,21.381l-4.662,17.012l-2.82,19.132l-5.268,16.079l-3.856,13.441l-3.895,13.218l-3.639,13.395l-3.993,11.817l-5.335,13.823l-3.374,12.811l-4.503,12.336l-3.793,12.553l-3.668,11.79l-5.274,12.44l-3.396,12.282l-3.985,8.677l-4.329,11.467l-4.856,13.208l-3.931,12.848l-4.16,7.392l-4.236,12.404l-3.314,9.48l-5.514,12.012l-3.177,12.293l-4.414,8.827l-4.602,12.448l-5.126,11.658l-2.589,12.588l-4.869,7.86l-3.892,12.916l-4.845,8.249l-3.845,9.113l-3.602,9.116l-4.016,11.842l-4.301,7.241l-4.696,8.54l-4.397,8.776l-2.931,6.962l-5.214,13.931l-3.143,6.727l-4.842,10.315l-4.077,7.317l-3.734,9.195l-3.737,7.242l-4.46,11.229l-4.291,10.752l-4.725,11.192l-4.372,11.899l-3.776,13.541l-5.22,14.152l-3.712,12.003l-3.477,7.642l-0.189,15.286l-3.223,17.049l3.289,17.515l4.779,82.937l3.102,91.309l4.081,87.94l4.673,92.559l3.827,90.24l5.188,83.658l3.704,91.581l4.124,94.247l4.002,86.899l3.449,92.002l4.579,82.182l4.555,92.167l3.821,90.255l4.815,89.619l0.593,42.065l-174.89,2.692l-4.656,-69.91l-5.266,-99.319l-2.647,-109.28l-4.606,-103.736l-3.35,-107.213l-4.441,-99.995l-4.638,-108.275l-4.806,-105.516l-4.328,-102.691l-3.374,-108.357l-3.236,-97.505l-1.421,-227.106l42.449,-36.892l6.714,-11.869l8.836,-15.904l5.387,-13.887l3.698,-12.451l-0.154,-17.056l4.498,-19.364l-0.553,-31.435l4.487,-31.267l-0.125,-34.036l3.268,-7.695l1.839,-17.256l3.187,-12.43l4.665,-9.092l3.814,-11.041l4.586,-9.751l3.692,-10.782l2.781,-9.161l4.899,-11.75l5.186,-9.31l3.912,-10.495l4.073,-9.963l3.842,-7.394l4.792,-13.467l4.334,-13.498l2.728,-7.584l4.33,-7.368l4.917,-12.903l4.065,-9.157l3.495,-10.89l8.156,-16.898l8.938,-21.374l3.933,-16.543l4.28,-4.696l4.113,-11.498l4.535,-9.412l4.139,-12.266l0.381,-4.61l2.298,-2.494l1.335,-4.924l3.324,-3.495l4.769,-16.977l4.673,-12.68l4.211,-12.4l4.225,-12.902l4.513,-16.195l3.791,-8.878l0,-4.158l4.414,-15.529l-0.662,-5.021l4.493,-8.403l-0.061,-13.001l3.915,-11.574l-0.266,-18.047l4.443,-16.287l0.013,-33.545l0.346,-3.09l3.331,-7.051l0.344,-143.424l3.827,-55.799l0.312,-106.574l4.17,-18.422l3.562,-12.037l5.152,-18.275l4.635,-12.961l-0.973,-4.488l3.044,-6.369l0.798,-6.067l3.606,-10.733l1.584,-6.372l2.753,-11.509l0.27,-3.74l4.239,-11.17l0.963,-5.917l3.891,-12.877l-0.246,-8.725l3.761,-10.866l0.939,-5.891l4.048,-16.248l0.023,-8.424l3.817,-14.864l-0.561,-18.243l4.645,-7.258l-0.418,-20.579l0.145,-14.09l-3.82,-14.372l-0.623,-5.357l-3.156,-11.471l-4.632,-13.373l-4.235,-9.421l-4.35,-10.605l-4.259,-8.245l-7.903,-12.926l-3.895,-8.001l-8.651,-13.25l-0.273,-3.95l-4.013,-4.764l-8.554,-13.183l-7.539,-11.738l-1.653,-8.23l-7.501,-8.506l-3.432,-4.204l-4.164,-4.217l-4.012,-3.984l-1.982,-11.551l-11.34,-12.739l-14.638,-15.725l-2.39,-5.311l-3.316,-8.162l-8.323,-8.177l-8.252,-8.814l-4.372,-8.412l-4.25,-8.69l-12.245,-20.331l-3.618,-8.806l-3.724,-10.739l-5.697,-9.007l-3.362,-7.721l-3.308,-9.875l-5.205,-8.114l-3.795,-7.316l-3.775,-10.194l-3.521,-6.505l-5.779,-8.842l-8.437,-12.625l-3.866,-0.479l-3.899,-3.518l-12.516,-0.152l-12.064,-5.237l-4.643,0.165l-15.016,-4.089l-13.436,-3.736l-5.854,-0.071l-10.43,-3.674l-4.596,-0.217l-12.23,-3.532l-5.884,-0.723l-16.387,-3.786l-2.962,-0.039l-12.464,-3.753l-4.257,-0.343l-17.606,-4.14l-4.337,-0.116l-7.359,-3.59l-16.43,-1.076l-12.302,-2.742l-17.678,-4.124l-11.112,-4.273l-12.875,-1.26l-9.031,-0.176l-7.475,0.731l-8.951,1.347l-5.239,4.302l-19.586,15.257l-11.767,12.368l-9.277,20.524l-7.943,8.052l-8.894,8.745l-7.64,8.542l-3.999,2.845l-9.541,8.692l-4.447,8.898l-2.316,12.392l-0.788,2.947l-0.181,4.548l-3.977,25.194l-0.132,4.761l-3.705,20.556l-0.649,5.495l-4.361,20.313l0.156,3.965l-0.09,4.233l-4.306,20.562l-0.082,4.576l-3.478,19.396l-0.417,4.765l-0.051,3.897l-3.138,13.141l-0.338,8.235l-0.718,4.435l-0.237,4.519l-4.025,15.862l-0,3.847l-0.055,5.076l-3.479,15.87l0.329,9.85l-4.329,22.587l-0.02,6.124l-4.143,19.281l-0.03,4.48l-4.798,21.155l-0.278,8.476l-3.44,20.376l-0.297,3.681l-3.124,25.059l-0.513,4.253l-4.227,22.241l0,3.52l-4.303,20.545l-0.004,8.666l-4.38,20.066l0.723,8.628l-0.23,4.245l-4.362,5.043l0.337,2.741l3.564,4.45l3.557,3.54l12.058,16.248l13.766,18.398l3.265,3.784l9.175,11.947l11.747,4.683l34.518,0.341l61.705,7.847l20.695,-0.585l13.323,4.657l24.673,0.379l28.43,3.273l17.88,0.356l10.769,-3.678l13.331,-4.928l12.402,-15.745l5.296,-8.793l2.714,-12.487l4.848,-12.668l4.243,-8.254l2.722,-11.977l5.547,-8.348l4.542,-13.891l2.72,-6.157l4.165,-13.416l7.64,-20.351l9.492,-20.655l8.317,-21.599l4.275,-8.88l4.445,-11.096l3.322,-12.441l4.422,-9.35l3.884,-11.841l5.388,-8.682l3.83,-12.788l4.081,-8.065l3.607,-12.37l4.667,-8.426l3.754,-11.714l3.788,-9.548l3.386,-11.168l5.478,-9.51l4.516,-10.978l3.866,-13.657l-0.222,-2.656l-3.112,-14.027l-0.422,-8.243l-4.532,-16.832l-0.533,-3.05l-3.426,-16.98l-0,-4.254l-4.685,-17.509l0.179,-4.472l-3.775,-15.831l-0.106,-8.411l-4.956,-11.995l-3.593,-13.953l8.847,26.005l6.809,21.451l5.49,7.631l3.311,7.618l4.285,9.38l4.007,7.348l4.407,8.938l4.547,8.787l4.131,8.026l3.099,7.695l0.709,4.247l3.703,3.809l0.689,4.398l3.27,3.988l0.666,5.91l3.977,19.029l0.525,29.902l3.606,33.375l0.135,33.05l4.691,8.716l10.349,0.324l14.592,0.026l11.708,-0.593l8.54,-3.995l13.602,-0.238l16.198,0.26l35.601,-7.85l-16.335,7.963l-12.425,7.18l-11.672,9.297l-12.017,7.231l-9.125,1.124l-4.04,7.988l-11.159,4.553l-9.522,8.526l-3.508,3.266l-8.555,5.428l-3.299,2.524l-9.381,4.397l-7.772,3.867l-5.137,3.731l-2.341,9.917l6.678,3.522l8.989,0.465l15.378,4.192l25.312,-0.211l16.247,3.198l17.945,0.986l-8.567,5.119l-4.334,3.406l-4.735,0.955l-3.997,2.753l-8.651,4.389l-2.279,-0.076l-5.183,3.994l-8.911,4.682l-7.798,3.636l-3.063,0.433l-9.299,3.421l-8.139,4.089l-4.636,0.107l-12.169,4.942l-15.994,4.1l-3.99,-0.83l-13.42,4.355l-5.382,0.106l-2.824,0.628l-8.076,6.223l-0.281,6.183l-3.6,7.123l-3.887,8.715l-4.987,5.551l0.007,3.423l-4.235,4.965l-0.444,2.613l-4.346,5.47l-0.274,2.776l-2.704,4.196l-5.188,5.362l-0.001,2.716l-3.107,7.52l-5.474,12.041l-2.489,5.4l-5.431,8.943l-8.571,11.605l-3.199,7.227l-5.013,9.998l-4.097,8.889l-3.229,7.623l-8.585,4.591l-4.237,17.362l-5.43,9.491l1.641,12.451l-7.416,2.171l-5.322,-0.29l-7.925,4.108l-8.407,0.452l-5.125,4.868l-1.798,-0.207l-13.646,4.991l-13.846,3.192l-12.57,3.721l-15.844,4.084l-11.768,4.17l-13.817,5.023l-15.483,3.302l-11.571,4.242l-5.196,7.084l-0.353,5.975l3.111,7.404l5.05,9.491l0.006,5.118l4.363,7.408l2.961,6.333l1.481,6.355l3.032,6.2l5.759,13.096l4.104,9.206l2.011,7.527l5.299,10.84l7.341,13.587l9.045,13.396l4.943,4.595l8.069,12.982l3.195,3.179l10.176,13.58l2.942,3.354l8.958,13.875l2.483,1.943l9.429,12.3l12.987,16.135l8.202,13.752l3.614,3.901l4.524,4.539l0.697,0.808l8.441,7.196l-5.106,-3.333l-3.335,-3.863Zm-549.017,675.854l-0.703,88.943l-4.095,66.135l0.312,50.104l-4.498,56.955l0.31,67.474l-4.093,36.482l-0.568,91.818l-3.307,113.44l-3.683,116.483l-4.91,102.637l-5.329,91.643l-2.889,80.479l-4.106,86.268l-4.549,83.507l-3.53,77.414l-0.953,21.612l-3.095,71.058l-3.542,12.626l-2.159,29.701l-2.966,8.334l-0.62,11.035l-3.537,8.921l-1.464,11.535l-2.483,1.567l-1.581,11.702l-3.342,4.945l-0.245,-9.428l-0.001,-8.728l-2.342,-3.599l-1.39,-33.24l-4.602,-17.124l1.017,-65.846l3.007,-32.703l1.2,-63.322l4.196,-37.202l0.353,-41.27l3.59,-38.159l-0.429,-45.615l4.547,-41.286l0.104,-33.264l3.683,-32.735l-0.246,-46.314l4.735,-41.262l0.354,-33.617l4.163,-49.552l-0.926,-21.716l4.69,-34.418l-0.133,-22.955l4.415,-41.6l-0.149,-25.292l4.318,-33.269l-0.658,-29.262l4.317,-28.309l0.08,-37.702l4.143,-12.736l-0.022,-44.99l4.641,-29.323l0.044,-30.088l3.179,-24.267l0.594,-38.629l4.246,-27.923l0.215,-33.74l3.749,-40.363l-0.262,-17.382l4.221,-42.752l0.551,-15.959l3.73,-40.031l0.438,-18.319l4.265,-37.527Zm149.167,148.248l-0.499,10.652l-3.625,21.362l-0.384,11.499l-3.794,21.254l-0.314,8.742l-0.192,11.958l-3.445,12.658l-0.371,8.819l-0.587,12.69l-3.704,11.855l0.192,21.286l-4.115,15.403l0.035,17.135l-4.293,20.955l-3.228,41.069l-1.212,46.292l-4.011,54.344l-0.891,20.423l0.891,83.401l-0,16.953l3.703,37.378l0.907,15.228l2.333,4.049l1.45,16.573l4.449,13.606l3.688,-5.291l4.469,-10.912l3.958,-17.84l3.717,-15.797l0.49,-8.522l4.609,-17.065l-0.038,-12.358l3.366,-23.965l0.837,-25.967l-0.297,-17.094l4.596,-12.469l0.38,-36.719l-0.762,-33.204l-0.02,-159.611l0.139,-30.882l-2.853,-30.844l-1.396,-11.809l0.197,-23.753l0.371,-9.643l-0.686,-32.627l-4.06,-19.212Zm-398.583,-305.25l12.282,-4.505l11.848,-4.355l12.557,-4.121l13.279,-4.552l8.465,-0.423l10.914,-3.579l21.323,-3.634l16.084,0.28l17.636,-4.635l16.643,-3.843l24.9,-4.041l12.007,0.422l17.498,-4.509l12.669,0l17.639,-3.694l31.479,-4.692l32.439,-3.654l46.442,-4.381l17.404,-0.111l36.1,-4.048l133.814,0l19.51,3.615l13.873,-0.118l11.759,4.96l9.079,-0.373l8.954,4.539l2.855,0.039l13.903,3.763l6.472,4.884l8.96,7.835l-0,4.778l4.29,3.677l13.398,4.352l15.231,-0.497l4.16,0.254l24.97,3.888l47.019,8.34l15.739,-3.719l1.086,-4.577l3.049,-5.443l0.208,-7.817l-0,-2.943l3.927,-8.143l0.268,-4.753l3.599,-8.706l0.863,-7.835l3.91,-12.447l0.038,-5.211l3.217,-6.746l5.563,-22.021l0.056,-8.448l2.939,-16.181l0.699,4.768l-0.483,12.442l-2.97,17.64l-1.378,19.492l-4.098,15.671l0.207,13.368l-0.1,8.41l-4.495,8.082l1.494,25.523l4.363,8.293l2.603,0.06l20.904,-0.007l13.4,4.105l32.896,-1.055l20.479,4.471l8.222,-0l0.468,13.433l-4.602,16.145l-0.353,29.491l-2.98,0.078l-8.673,-0.424l-12.3,-4.184l-13.304,-0.407l-11.443,-4.03l-18.383,-0.389l-18.381,-3.964l-6.9,0.482l-16.069,-1.151l-3.776,8.531l-0.175,8.622l0.464,13.307l-3.165,7.366l-1.437,20.996l-2.76,12.741l-0,13.426l-5.76,16.349l0.63,12.061l-4.202,4.299l0.288,11.743l-28.714,0.653l-0.292,-13.014l3.904,-11.67l0.23,-9.476l4.006,-6.658l0.034,-14.614l-0.109,-2.73l4.909,-12.648l-0.166,-5.308l4.527,-6.516l-0.239,-13.053l4.283,-7.919l-0.859,-11.049l4.347,-5.294l-0.354,-10.033l-7.478,-6.974l-4.175,-4.089l-4.161,-0.404l-3.322,-4.099l-5.36,3.299l-8.928,0.091l-3.254,-2.618l-16.979,-1.085l-24.975,-4.436l-28.225,-4.133l-51.181,-4.131l-32.536,-4.098l-33.148,-4.177l-9.055,-0.175l-21.803,-5.189l-19.832,0.921l-6.637,-7.613l-18.748,3.925l-23.266,0.023l-13.305,-4.256l-38.168,-0.551l-12.183,-3.255l-15.653,-0.952l-50.458,0.435l-12.84,-4.046l-228.451,0.439l-32.633,3.822Zm805.143,-40.799l4.734,-17.887l5.51,-11.453l2.9,-8.308l5.166,-13.247l2.805,-12.525l4.202,-8.944l4.214,-6.911l4.643,-9.711l8.268,-19.845l4.563,-9.745l2.831,-5.68l4.839,-9.461l4.71,-8.994l3.52,-10.919l4.374,-9.736l4.385,-6.759l4.136,-9.144l4.172,-8.837l3.926,-6.73l4.188,-9.489l0,-3.791l3.598,-4.111l-0,-5.299l3.669,-2.475l1.377,-5.318l2.463,-3.627l0.532,-4.133l3.649,-3.814l0.495,-4.994l4.888,-4.555l-0,-3.291l4.452,-5.131l0.058,-3.305l2.523,-3.753l0.734,-5.291l3.84,-3.455l0.743,-5.361l3.592,-2.855l0.807,-3.889l2.836,-3.185l1.595,-4.417l5.377,-7.059l2.265,-6.201l4.547,-9.462l4.471,-7.524l4.026,-5.165l-0.059,-3.476l3.093,-4.128l0.571,-3.955l4.91,-4.733l0,-4.314l3.828,-3.027l0.215,-5.316l3.36,-3.204l3.612,-5.115l0.934,-4.224l4.629,-8.033l4.236,-6.987l4.001,-5.453l3.546,-7.271l5.291,-9.475l2.58,-7.54l4.492,-9.025l4.526,-8.572l-3.315,13.017l-1.079,4.041l-3.753,16.114l-4.472,14.389l-0,2.767l-3.301,16.79l-4.465,16.124l0,5.858l-4.152,7.881l-1.831,7.834l-3.431,8.474l-0.292,6.527l-3.09,6.166l-0.392,8.626l-3.136,3.387l-1.107,9.085l-3.414,7.159l-1.646,8.594l-3.484,6.144l-0.97,7.773l-2.769,5.919l0.538,5.397l-3.944,6.378l-0.902,5.612l-4.192,12.555l-2.63,8.945l-2.065,7.704l-3.776,8.947l-0.105,3.244l-3.175,8.662l-1.374,7.322l-2.404,5.269l-0.28,4.377l-4.56,6.817l-0.199,9.314l-3.362,5.235l-1.836,7.172l-1.518,3.852l-1.684,5.504l-3.095,11.452l-3.563,11.661l-4.579,12.76l-4.866,11.217l-3.895,10.587l-3.507,11.315l-4.546,12.799l-4.059,12.801l-0.868,8.791l-3.415,4.776l-1.495,7.299l-3.223,8.029l-2.435,8.294l-4.747,0.886l-13.782,-1.11l-15.414,-3.818l-14.189,0.129l-4.903,-4.068l-11.016,-0.343l-9.224,1.202Zm-491.527,-338.901l-0.978,1.098l-5.735,8.619l-3.972,11.601l-4.046,10.537l0,2.429l-7.249,12.262l-4.696,7.73l-0.924,5.533l-3.784,3.178l-0,3.436l-4.947,8.531l0,4.972l-3.428,4.81l-0.283,4.869l-3.634,6.213l-3.628,9.309l0,2.639l-4.298,9.424l-0.071,4.536l-4.307,5.336l-0.155,4.287l-4.415,7.079l-3.403,7.48l-1.183,4.637l-4.09,12.99l-4.122,7.925l-0.319,3.391l-3.305,8.29l-3.683,12.698l-3.744,12.547l-5.394,10.092l-0.717,7.673l-3.08,4.582l-0.912,7.059l-9.566,4.171l-15.519,3.843l-16.729,5.271l-12.259,3.957l-16.013,4.286l-12.341,3.891l-16.497,4.759l-12.154,3.864l-16.453,3.982l-13.526,3.504l-16.65,4.652l-16.547,4.229l-13.778,4.767l-10.625,3.456l-4.508,0.051l-29.645,8.231l-12.981,5.113l-16.576,2.315l-24.537,5.395l5.043,0.096l28.585,-4.159l25.687,-5.157l15.973,-3.631l9.254,-0.724l11.677,-3.396l12.91,-0.321l12.113,-4.268l15.556,0.052l12.361,-4.773l8.476,-0.083l16.581,-4.616l15.347,1.038l7.722,-4.33l10.402,-0l12.691,-3.896l8.091,-0.052l16.399,-4.005l8.111,-0.332l12.627,-4.65l8.975,0.07l17.119,-3.806l8.462,-0.217l11.468,-3.218l9.958,-0.578l11.441,-4.466l9.267,0.373l8.852,-4.271l10.918,-0.077l8.488,-3.911l12.129,0.334l15.982,-3.957l12.922,-4.467l5.026,-0.508l12.74,-7.251l3.473,-7.558l-0.086,-14.335l-7.734,3.983l-11.712,0.584l-13.183,0.665l-16.067,4.598l-17.566,-0.292l-15.853,-3.906l-0.994,-10.07l4.221,-14.031l0.263,-10.999l4.363,-14.997l-0.631,-14.022l4.506,-15.798l-0.556,-16.591l4.946,-12.579l-0.167,-20.068l3.858,-8.548l0.16,-13.561l4.509,-16.374l-0.166,-7.755l0.819,-8.613l3.61,-12.425l0.428,-15.291l1.612,-6.389l1.89,-2.123l-0,-5.368l-1.89,7.491Zm-164.28,-1055.3l-0.046,4.387l-3.9,12.737l9.018,8.153l9.5,0.522l9.978,3.06l4.302,0.862l8.986,4.006l12.556,4.255l6.624,2.923l9.152,5.642l8.85,8.795l2.836,2.466l8.79,8.615l4.192,9.826l4.184,10.649l4.77,16.461l0.008,55.618l-4.979,24.99l-3.351,11.539l-4.069,13.247l-4.43,13.3l-5.308,12.147l-2.842,6.944l-4.027,8.729l-3.699,8.186l-4.912,5.177l-13.227,20.012l-15.324,17.661l-8.304,16.405l-13.38,7.479l-4.531,8.363l-7.213,4.755l-4.933,8.154l-3.443,15.101l-1.229,9.723l-3.335,11.376l0.211,13.658l-4.168,15.467l0.766,4.939l-4.799,12.688l0.265,12.999l-5.373,14.859l1.422,6.427l-3.861,14.6l-0.873,12.553l8.984,12.859l36.772,42.642l3.785,2.17l20.163,22.297l4.135,-0.378l8.829,7.933l21.266,-0.009l15.11,4.379l23.225,-0.013l14.488,4.472l21.138,-0.268l20.273,4.121l14.158,0.002l16.039,3.97l21.254,-0.027l16.399,-0.447l3.66,-3.041l7.657,-4.448l5.945,-4.267l7.66,-3.859l12.267,-8.72l8.336,-4.194l8.349,-4.69l3.725,-2.602l8.194,-5.442l3.402,-2.92l1.583,-13.658l0.455,-8.626l-4.187,-14.891l-0.896,-29.9l-3.951,-25.058l0.14,-38.424l4.921,-15.338l0,-6.432l3.678,-9.547l-0.153,-5.514l5.189,-16.748l-0.792,-7.764l3.942,-12.493l4.609,-19.92l2.261,-17.775l0.601,-4.501l4.321,-16.558l0.217,-7.204l3.243,-8.643l0.57,-12.503l5.011,-8.683l-0,-8.679l3.72,-11.173l0.305,-9.758l4.301,-11.579l-0.467,-8.325l4.98,-12.692l-0.049,-7.457l4.35,-8.634l-0.087,-10.002l3.904,-10.727l-0.411,-9.441l4.263,-13.394l0.046,-6.284l3.44,-8.642l0.814,-12.344l3.756,-11.16l0.279,-4.628l4.516,-13.048l0.157,-7.14l2.869,-9.927l0.283,-12.358l4.063,-14.642l0.047,-7.151l5.384,-7.963l3.368,-7.445l3.662,-4.069l3.884,-3.715l4.295,-5.41l3.865,-3.678l5.136,-5.724l6.791,-9.737l7.453,-7.034l24.346,-28.251l12.133,-13.4l7.403,-11.111l7.724,-7.967l19.84,-21.208l1.594,-7.333l0,-4.972l-4.391,-12.795l-8.6,-12.433l-8.631,-12.877l-7.571,-13.17l-3.336,-5.062l-5.552,-10.547l-7.336,-7.062l-4.868,-0.454l-7.172,-4.218l-8.204,-0.266l-12.878,-4.853l-9.314,0.104l-12.03,-4.485l-4.814,0.078l-11.453,-4.108l-4.83,0l-11.603,-4.129l-3.628,0.074l-18.694,-3.709l-1.625,0l-13.972,-4.675l-4.416,-0.251l-11.124,-3.511l-6.176,0l-11.038,-4.327l-9.177,-0.687l-12.258,-3.005l-12.659,-3.809l-4.099,-0.047l-17.224,-4.195l-3.014,-0.765l-17.672,5.011l-11.91,3.791l-3.88,3.709l-8.544,4.481l-12.82,7.65l-8.342,5.275l-8.376,3.576l-6.635,4.553l-9.25,3.607l-2.809,1.945l-7.916,4.786l-8.959,4.789l-10.591,5.081l-7.707,4.106l-12.705,8.448l-8.696,4.79l-8.564,3.92l-6.751,4.437l-8.386,4.154l-12.699,6.858l-9.194,4.886l-8.17,8.732l-2.743,8.394l-0.683,8.973l-5.087,15.3l-4.606,17.63l-3.695,18.5l-4.004,13.6l-4.118,13.402l0,3.624l-3.016,11.399l-0.368,4.665l-4.581,12.937l-0,3.609l-3.622,12.973Zm-852.054,-129.27l3.879,8.549l3.135,7.631l4.121,14.312l3.701,6.779l4.689,7.765l5.054,13.105l4.399,12.518l3.829,8.647l5.027,12.68l7.265,16.751l3.839,11.897l0.128,4.224l5.278,8.739l10.459,12.797l4.783,-4.054l5.384,-5.123l2.765,-3.058l4.246,-4.437l5.359,-4.557l2.753,-3.606l5.285,-4.872l2.992,-3.604l3.556,-3.48l6.077,-5.886l3.868,-3.402l3.949,-3.88l3.938,-4.806l4.505,-5.387l4.23,-2.509l3.9,-4.334l3.525,-3.742l13.018,-12.415l19.783,-12.744l5.667,-4.709l12.694,-4.015l8.658,-4.31l7.724,-2.486l7.556,-4.858l13.507,-3.146l12.89,-5.442l12.514,-3.642l11.397,-4.7l17.189,-3.5l24.159,-4.509l16.8,-3.631l15.545,-0.481l13.648,3.193l12.352,5.006l21.228,12.913l15.81,7.146l5.656,-4.056l-0.93,-8.013l-0.377,-9.084l0.163,-31.358l-3.239,-27.85l-1.474,-15.049l-3.025,-24.769l0.296,-20.14l-3.901,-17.638l-1.251,-16.616l0.873,-17.413l-4.182,-28.294l0.129,-16.296l-4.138,-5.704l-17.524,-11.025l-7.512,-4.294l-7.933,0.393l-12.669,4.375l-9.042,0.232l-13.024,3.212l-20.116,4.454l-25.32,4.669l-13.714,3.969l-23.518,4.291l-16.002,4.417l-16.873,3.607l-22.128,3.996l-24.255,3.907l-32.324,3.863l-8.453,17.741l-8.942,12.333l-4.094,4.301l-8.663,12.644l-3.776,3.242l-8.122,12.921l-5.6,5.054l-6.642,11.664l-8.762,12.024l-12.586,17.137l-4.215,3.53l-4.559,10.035l-7.728,11.125l-16.841,16.761l-0.228,4l-7.663,12.314l-3.829,16.061Zm498.998,-137.5l-0.246,42.842l-3.897,55.914l-1.068,56.922l-3.909,54.178l8.233,7.281l17.919,8.995l2.183,3.487l9.606,4.958l7.177,2.954l9.371,4.365l8.067,4.844l3.827,3.694l14.339,3.825l53.106,-0.129l16.463,5.114l25.331,-0.853l19.085,4.741l14.628,-0l14.685,4.192l10.173,-0.101l19.057,3.986l5.259,0.158l19.779,3.896l5.377,-0.251l10.836,0.288l5.608,-4.625l-0.047,-2.923l4.423,-9.151l2.787,-4.261l1.344,-4.059l3.587,-3.522l0.637,-6.177l3.68,-7.01l3.755,-7.619l3.942,-8.752l4.41,-9.397l0.346,-7.142l4.24,-7.952l4.413,-9.12l4.139,-9.146l4.526,-11.081l3.827,-8.907l4.188,-12.508l3.852,-8.898l3.056,-8.68l9.626,-15.171l3.368,-12.638l5.842,-13.37l2.667,-7.522l4.096,-9.011l1.475,-3.9l3.52,-7.959l7.815,-15.696l0.159,-4.593l4.291,-5.402l-0,-2.595l2.796,-9.385l5.701,-8.812l0,-3.032l-0.392,-12.67l-2.891,-3.251l-20.999,-29.854l-5.691,-12.137l-8.314,-4.316l-15.502,-0.073l-12.177,0.267l-20.814,-5.403l-17.22,0.642l-16.363,-4.564l-18.66,-0.532l-24.169,-3.655l-17.042,-0.544l-19.56,-4.243l-15.914,0.515l-21.761,-3.889l-16.473,-0.158l-8.228,4.076l-16.913,7.74l-21.089,9.738l-4.374,3.624l-3.611,0.146l-3.914,3.979l-9.415,5.19l-2.925,0l-9.281,4.04l-7.978,3.005l-8.312,4.886l-8.712,3.337l-9.28,5.441l-7.446,3.772l-7.439,4.528l-7.974,3.252l-12.617,11.827Z" style="fill:#b7330a;"/>
    <path d="M1697.17,1391.62l-26.297,-22.419l-20.609,-15.939l-4.453,-4.496l-16.151,-12.051l-4.67,-4.788l-16.295,-11.612l-3.801,-4.36l-19.844,-16.118l-4.687,-4.905l-3.681,-4.193l-5.849,-4.79l-11.819,-7.904l-9.034,-12.147l-3.236,-3.671l-16.367,-11.827l-5.105,-5.808l-12.204,-10.69l-11.684,-5.186l-5.457,-5.816l-3.491,-3.047l-3.214,-3.029l-1.889,-8.989l-3.801,-3.612l-2.984,-5.136l-3.686,-3.956l-15.58,-4.409l-5.702,-4.497l-4.438,-3.891l-4.325,-4.541l-3.232,-3.635l-5.417,-4.76l-2.25,-3.164l-5.94,-4.338l-3.642,-4.658l-6.327,-3.827l-1.9,-4.538l-5.35,-4.017l-2.811,-4.135l-12.768,-15.723l-4.416,-4.745l-7.182,-3.811l-12.131,2.616l-10.578,4.728l-7.323,3.698l-12.352,4.9l-10.031,5.641l-2.903,1.787l-6.959,3.96l-4.124,2.136l-9.256,3.675l-4.575,4.967l0.472,21.141l3.532,7.647l0.942,23.886l3.949,42.836l-0.457,8.229l0.134,33.227l4.121,37.158l0.488,19.635l3.774,8.913l0.425,8.794l-5.119,-13.044l-3.811,-12.331l-0.016,-3.72l-3.868,-8.74l-4.467,-7.497l0.563,-4.891l-5.197,-20.279l-6.384,-4.948l-5.237,-8.383l-5.504,-20.388l-3.016,-4.733l-3.391,-4.192l-9.494,-19.272l-4.336,-6.216l-4.384,-12.019l-3.355,-4.141l-3.865,-7.3l-3.617,-8.341l-1.278,-4.6l-4.157,-9.448l-7.441,-11.975l-3.945,-3.567l-8.359,-4.127l-9.186,-4.574l-8.201,-3.811l-7.008,-4.189l-9.413,-3.758l-12.744,-8.181l-7.872,-3.674l-7.89,-4.39l-17.217,-8.468l-16.063,-8.261l-8.831,-4.432l-7.845,-4.555l-18.016,-8.085l-7.684,-4.204l-4.825,-3.759l-18.975,-12.437l-5.784,-3.922l-4.1,-1.756l-16.028,-10.761l-3.752,-0.949l-8.553,-2.764l-4.836,-0.991l-7.384,-4.218l-20.375,-0.257l-26.553,-0.176l-8.312,-6.626l-12.244,-0.363l-8.165,2.073l-4.661,-0.102l-4.024,-2.835l-3.053,-0.035l-8.656,-3.444l-8.924,3.148l-3.332,-0.417l-4.663,-0.035l-13.175,-7.65l-19.104,3.336l-17.605,-3.753l-11.749,-0.264l-20.099,-4.314l-27.593,0.692l-3.376,0.91l-11.895,2.466l-8.793,4.903l-3.308,0.037l-8.688,4.092l-7.537,0.855l-12.907,7.927l-10.333,4.456l-6.168,-0.921l-4.073,4.297l-12.581,4.884l-9.81,4.315l-6.92,3.167l-4.373,3.797l-5.015,0.035l-13.733,4.697l-10.126,4.879l-17.02,11.911l-4.658,2.906l-4.081,0.275l-8.344,5.36l-3.575,3.317l-4.553,1.733l-2.817,2.688l-9.274,5.025l-12.082,7.879l-4.208,0.247l-3.515,3.613l-8.681,3.706l-9.354,4.964l-11.91,8.904l-21.263,11.745l-7.899,4.452l-7.974,4.319l-4.161,3.402l-8.573,4.194l-8.871,3.891l-3.831,3.81l-8.589,4.558l-12.088,8.117l-12.173,8.429l-9.083,4.376l-3.99,4.323l-8.453,4.244l-21.193,8.149l-3.849,7.799l-12.959,8.823l-10.619,5.024l-14.244,12.224l-11.928,8.649l-29.694,19.613l-24.366,19.434l28.468,-24.211l12.646,-10.745l9.929,-9.931l10.249,-6.91l5.399,-8.558l7.079,-4.297l5.725,-4.604l4.024,-8.89l3.996,-3.855l3.862,-3.587l4.282,-4.023l3.822,-3.572l7.872,-5.898l0.942,-2.599l3.861,-4.194l28.766,-33.329l4.98,-5.139l7.883,-7.446l8.287,-13.123l12.651,-15.217l5.04,-9.958l3.987,-3.827l4.395,-8.616l-0.115,-3.122l-7.873,-4.577l-6.229,1.312l-5.274,3.279l-10.927,3.547l-7.6,4.003l-12.214,5.01l-13.19,4.364l-15.696,3.779l-5.656,0.756l-8.128,2.275l16.727,-7.515l4.478,-3.845l13.135,-9.055l3.729,-2.525l11.808,-8.073l4.815,-5.656l3.626,-3.677l13.888,-8.89l3.124,-3.678l3.687,-4.13l5.492,-4.072l5.912,-2.807l5.65,-5.199l4.541,-4.48l4.524,-3.986l2.414,-3.674l12.69,-7.843l5.017,-5.22l4.319,-3.966l4.365,-4.426l3.225,-3.093l5.817,-6.708l17.127,-11.08l8.134,-9.429l3.846,-4.299l3.237,-2.662l11.495,-5.036l4.722,-3.637l4.742,-7.688l3.899,-5.408l3.902,-3.082l5.009,-4.755l3.682,-3.108l4.388,-5.274l3.82,-5.233l3.665,-7.442l-7.513,-5.172l-4.737,5.192l-8.413,0.186l-3.862,0.308l-11.471,3.619l-12.213,0.487l-10.68,3.976l-15.77,0.379l-16.228,3.771l-20.461,0.008l-24.872,3.814l-92.961,-0.101l-11.947,-3.684l-16.371,0.471l24.33,-5.034l8.552,-3.408l9.186,-3.615l3.918,-0.646l6.808,-3.785l7.019,-1.084l3.705,-2.765l2.513,-0.326l3.891,-0.085l6.194,-3.889l3.006,-0.471l7.647,-3.647l4.441,-0.069l8.922,-4.692l3.252,-0.035l5.694,-3.564l2.801,-0.094l4.352,-0.262l3.21,-3.858l4.292,-0l4.315,-0.954l6.816,-3.579l1.949,-0.22l3.254,-0.056l5.199,-3.113l4.209,-0.456l3.479,-0l4.689,-4.093l4.79,-0.127l3.126,-0.357l9.719,-8.061l0,-3.969l-2.903,-4.123l-6.202,-4.84l-0.11,-4.192l-3.414,-8.937l-4.849,-7.876l-4.238,-11.219l-2.877,-6.332l-0.035,-2.952l-5.123,-7.423l-0.029,-6.087l-4.831,-7.229l0.207,-3.722l-4.028,-8.142l-0.167,-6.047l-3.297,-11.145l-0.466,-5.502l-3.04,-7.11l-0.454,-5.954l-0.133,-2.481l-5.1,-13.225l-0.028,-6.291l0.888,-10.483l-4.615,-11.272l0.555,-50.223l4.895,13.031l2.926,8.734l1.536,8.157l1.82,3.092l0.056,2.971l4.937,5.899l0.292,3.385l4.798,5.727l0.307,6.938l2.239,4.213l0.737,5.393l4.037,3.878l-0,3.703l3.865,3.757l4.659,7.957l4.195,8.72l4.348,4.036l3.927,9.062l3.798,3.873l3.467,7.644l4.686,5.27l3.378,2.85l5.555,5.812l3.642,3.519l3.627,3.061l5.678,4.714l3.42,3.585l8.1,4.765l8.206,3.686l64.406,0.539l11.18,-0.127l11.913,-3.362l3.609,-0.117l3.984,-0.343l4.578,-0.447l5.098,0.489l13.049,-0.872l11.625,-2.714l3.744,-0.097l8.316,-0.312l13.404,-4.193l8.625,-0.518l3.167,-0.138l13.287,-3.684l3.796,-0.111l11.587,-3.661l5.335,-0.737l11.561,-3.667l5.671,-0.518l10.661,-4.222l12.465,-3.271l13.589,-4.955l9,-3.523l11.33,-3.771l20.728,-9.294l4.976,-0.002l3.602,-3.889l8.194,-3.618l7.942,-4.508l9.328,-4.495l4.015,-4.234l7.488,-3.43l3.7,-1.396l3.435,-2.765l13.416,-8.278l4.962,-4.644l4.768,-4.903l6.394,-3.566l4.284,-3.645l5.169,-3.479l4.932,-6.038l3.123,-2.912l20.846,-20.321l6.045,-6.011l3.068,-3.955l9.883,-16.446l6.172,-3.838l4.599,-8.042l4.325,-4.502l4.869,-7.707l4.043,-8.966l3.881,-7.627l3.007,-4.72l4.554,-4.743l0.103,-12.287l4.167,-11.962l0.481,-9.578l3.67,-18.614l-3.985,-11.912l-0.84,-4.95l-8.102,-9.368l-7.896,-4.034l-3.649,-0.519l-8.703,-4.246l-4.316,-0.028l-8.395,-3.818l-4.037,-0.446l-7.939,-2.991l-4.71,-0.757l-12.144,-4.276l-5.628,0.496l-11.209,-4.482l-4.151,-0.084l-12.451,-4l-8.393,0.032l-8.645,-3.592l-11.442,-1.341l-13.73,-4.413l-16.21,0.76l-8.522,-3.479l-17.297,-1.469l-24.612,-2.957l-25.024,-0.258l-14.65,-4.257l-121.039,0.174l-9.505,-0.312l-12.361,-0.64l-9.019,-3.65l-6.72,-3.49l-5.262,-3.196l-2.635,-1.358l-9.205,-6.939l-7.758,-5.376l-12.036,-4.842l-7.033,-3.582l-2.298,-0.151l-4.609,-4.543l-3.491,-2.697l-8.022,-4.512l-8.987,-3.6l-8.088,-4.724l-9.679,-4.584l-7.098,-4.034l-16.69,-9.111l-4.252,-3.014l-16.533,-8.838l-8.565,-4.922l-8.38,-3.613l-15.154,-3.257l-17.573,6.355l-17.75,6.532l-8.048,2.945l-11.906,3.623l-8.116,5.425l-5.051,0.05l-12.31,4.725l-7.776,4.246l-8.704,3.775l-8.488,4.177l-7.832,7.436l-12.235,7.68l-25.852,21.901l-11.678,16.252l-5.129,4.655l-11.903,16.41l-3.756,3.712l-5.488,4.174l-7.157,14.005l-4.218,3.646l-5.523,5.292l-1.702,1.676l-9.431,13.667l-3.546,3.164l-7.96,12.4l-5.381,13.251l-11.847,24.78l-12.496,28.986l-8.821,16.948l-7.581,16.858l-4.893,12.177l-3.226,7.79l-4.967,8.699l-3.491,4.762l-4.008,3.557l-0.497,8.509l-5.27,8.69l-2.151,7.415l-5.426,3.318l-0.691,9.704l-4.212,8.657l-3.152,11.484l-7.93,17.209l-4.748,13.602l-3.132,6.446l-3.008,8.292l-5.789,13.113l-4.585,8.768l-4.988,12.289l-3.759,7.902l-3.411,12.73l-4.234,8.081l-4.506,9.027l-3.77,12.555l-4.494,7.092l-7.42,18.209l-4.82,11.683l-5.401,12.178l-3.85,9.876l-3.175,7.105l-0.478,2.577l-3.928,9.678l-0.937,8.191l-3.591,9.293l-0.3,15.693l-3.017,8.307l0.371,41.164l2.373,4.932l0.993,21.34l3.71,3.012l-0.05,9.056l3.868,4.207l0.964,7.921l3.617,4.564l0.308,4.522l0.565,3.177l2.655,3.569l0.82,5.634l3.165,5.617l1.803,6.672l3.291,7.448l3.615,11.694l5.058,12.921l3.509,13.361l3.469,11.999l5.47,8.446l4.593,13.041l3.029,10.372l5.027,13.011l3.655,13.505l3.983,8.328l3.23,12.211l5.453,12.791l3.986,7.704l4.832,12.918l-0.062,11.883l6.627,13.261l5.466,9.445l4.921,14.679l2.858,12.197l3.813,8.936l5.591,17.054l3.176,7.447l15.842,12.586l4.868,4.559l8.65,8.341l7.367,3.772l17.562,17.026l21.183,13.499l3.425,2.819l12.425,8.006l4.792,4.611l12.569,7.785l3.265,4.935l7.943,4.046l4.88,3.783l12.412,7.9l4.047,4.676l12.344,8.732l13.006,8.212l13.291,8.322l12.335,8.451l3.193,4.383l9.496,4.252l3.897,4.875l6.511,2.981l5.619,4.104l6.986,3.763l6.311,5.371l6.454,3.141l4.925,4.412l8.275,4.7l4.186,3.913l12.752,8.025l12.944,8.444l8.296,3.992l4.797,4.745l10.916,5.705l9.311,5.932l12.083,8.123l16.589,8.816l7.438,7.824l10.05,4.805l7.545,3.868l8.896,5.354l6.907,3.095l21.356,11.761l12.861,9.622l27.992,15.247l21.643,13.107l20.421,11.989l13.129,9.196l8.169,4.415l9.175,4.614l11.324,7.033l8.138,4.659l12.481,7.181l8.092,4.527l22.061,13.264l6.849,4.266l9.794,7.602l-9.48,5.581l-4.059,3.202l-11.899,7.833l-13.559,8.506l-11.772,8.485l-8.232,4.428l-8.917,4.841l-8.279,4.037l-7.905,4.024l-7.368,3.465l-9.353,4.856l-8.257,2.626l-12.991,4.719l-11.34,5.21l-8.352,7.66l-0.304,3.465l-0.777,21.112l0.818,9.358l-3.769,24.287l-0.567,13.734l-4.174,8.051l-0.384,32.441l-4.818,24.197l0.326,13.754l-3.464,7.721l0.716,33.825l-5.003,20.299l-0.69,17.175l-3.566,23.144l-0.853,17.834l-4.19,17.142l0.473,19.174l-3.957,14.378l-0.01,24.545l-3.706,8.836l0.092,26.974l-4.637,18.504l-0.155,16.385l-3.902,20.512l-0.272,20.824l-3.021,10.947l-1.215,26.124l-4.542,20.136l0.521,18.256l-3.68,19.177l-0.86,21.353l-3.038,20.789l-0.562,16.629l-3.525,16.792l-0.399,8.918l-0.263,12.668l-3.707,19.401l-0.53,17.901l-3.535,20.107l0.289,17.515l-4.889,20.14l-0.224,16.879l-3.952,20.862l0,17.243l-3.518,23.238l-0.059,17.955l-4.1,16.306l-0.19,21.674l-3.941,19.491l-0.791,14.203l-4.257,27.901l0,13.298l-3.865,19.313l0.09,17.871l-4.767,25.024l0.649,12.362l-3.683,23.469l-0.331,17.606l-4.602,19.302l0.245,17.027l-4.603,13.441l-0.382,22.169l-2.702,22.857l-0.179,13.487l-0.093,9.31l-3.735,13.909l-0.683,17.964l-3.931,24.08l-0.414,13.908l-4.253,23.132l0.092,17.339l-4.154,16.791l0.357,17.455l-3.886,16.318l-0.764,29.954l-3.757,11.048l-0.777,24.957l-3.986,11.368l0.113,25.767l-3.782,16.749l-0.91,21.637l-3.667,11.854l-0.927,25.894l-2.881,9.073l-0.088,26.976l-4.113,17.102l0.335,8.591l0.074,7.349l-7.704,1.592l-9.667,-0.836l-108.021,-0.389l0.891,-8.305l0.276,-7.605l3.945,-16.094l4.001,-25.854l-0,-20.983l4.559,-29.06l3.77,-33.443l3.312,-36.552l4.738,-30.114l0.25,-29.098l3.907,-8.105l0.052,-17.348l-0.072,-3.354l3.28,-10.458l0.864,-22.246l0.812,-4.951l2.466,-7.574l1.13,-17.375l0.165,-12.642l3.312,-7.608l0.515,-25.412l4.362,-23.649l-0.161,-9.2l4.599,-16.026l-1.126,-17.439l5.278,-21.664l0.343,-11.702l3.784,-16.989l-0.125,-16.181l4.266,-19.548l0.274,-14.739l4.056,-14.88l-0.238,-18.529l3.652,-19.303l-0.082,-13.493l4.222,-19.518l0.717,-13.416l3.714,-20.495l-0.218,-17.274l4.274,-16.101l0.342,-16.899l3.557,-16.9l0.308,-16.681l4.071,-15.219l0.848,-13.466l3.073,-17.245l1.034,-20.653l3.467,-14.655l0.593,-15.065l2.506,-19.087l0.306,-14.398l5.101,-23.567l-0.139,-12.223l3.971,-15.922l0.048,-17.732l4.571,-16.188l-0.178,-17.067l3.711,-16.703l0.087,-19.868l3.926,-13.299l-0.265,-20.118l4.736,-11.059l0.449,-21.64l3.293,-13.199l-0.184,-21.228l4.198,-10.871l0.31,-26.93l4.79,-10.365l0.403,-18.686l3.927,-7.843l-0.517,-20.887l4.491,-18.831l0.511,-18.641l3.369,-14.253l0.349,-19.138l4.569,-16.559l-0.581,-20.321l4.157,-12.181l-0.061,-18.737l4.464,-15.248l-0.049,-15.689l3.458,-16.623l0.761,-17.346l2.939,-11.638l0.751,-22.223l4.506,-11.509l-0.052,-5.26l-3.741,-10.642l-0.575,-13.824l-4.338,-15.363l0.616,-9.277l-5.069,-15.616l0.53,-13.856l-3.752,-11.305l-0.955,-12.566l-3.175,-4.175l-4.806,-4.601l-4.223,-4.629l-3.319,-3.096l-9.451,-13.912l-3.989,-4.215l-3.073,-2.918l-4.85,-3.91l-7.838,-13.293l-3.823,-3.512l-4.597,-4.297l-4.438,-4.553l-3.463,-3.93l-13.618,-16.995l-3.821,-4.158l-3.957,-2.885l-5.877,-5.251l-6.815,-12.941l-5.104,-3.681l-3.683,-4.218l-4.072,-3.937l-8.312,-12.239l-12.464,-12.752l-20.32,-29.141l-12.272,-12.631l-12.481,-17.94l-9.604,-10.736l-4.127,-5.395l-2.355,-2.897l-5.752,-8.947l-7.514,-8.259l-3.433,-3.284l-8.451,-10.803l-5.195,-6.525l-8.084,-12.227l-4.868,-4.715l-4.579,-4.427l-3.755,-8.385l-3.34,-3.13l-8.572,-12.58l-4.354,-4.107l-4.394,-4.713l-8.099,-11.284l-7.181,-13.598l-4.838,-3.972l-13.082,-16.221l-8.911,-13.545l-2.749,-3.51l-3.926,-8.132l-8.552,-8.491l-8.911,-16.393l-8.19,-5.428l-8.275,-11.24l-0.401,-8.247l-7.314,-4.085l-9.438,-14.436l-11.498,-18.449l-1.624,-4.566l-4.536,-5.666l0.279,-2.707l-3.594,-4.31l-3.409,-8.545l-0.418,-4.446l-5.226,-4.198l-2.761,-7.929l-0.091,-3.992l-4.386,-7.739l-3.278,-7.428l-4.581,-10.263l-0.929,-4.116l-2.878,-3.4l-1.198,-3.807l-3.458,-5.309l-0.461,-4.438l-3.709,-6.864l-0.18,-4.715l-3.532,-3.965l-3.919,-9.552l-0.247,-3.092l-4.651,-8.458l-4.085,-8.184l-0.59,-5.159l-3.67,-7.613l-3.753,-7.996l-0.426,-4.383l-4.541,-7.256l0.098,-4.128l-2.999,-5.481l-0.643,-3.807l-4.267,-8.828l-0.039,-3.223l-3.962,-8.025l-0.589,-4.625l-3.298,-3.49l-0.937,-4.819l-3.041,-8.262l-1.031,-5.147l-3.505,-6.837l-0.729,-5.949l-4.156,-7.715l-0.38,-3.954l-4.145,-7.775l0.013,-5.459l-4.3,-8.645l-0,-2.576l-2.906,-9.47l-1.267,-4.367l-2.571,-8.347l-1.082,-3.374l-3.413,-11.287l-0.09,-4.742l-4.665,-13.279l-3.353,-11.404l-4.672,-15.066l-0.039,-5.726l-3.773,-11.726l-0.272,-43.875l4.333,-10.85l4.175,-13.035l4.315,-8.573l4.932,-12.029l2.647,-12.826l4.289,-8.711l4.372,-12.719l4.242,-8.938l4.793,-11.492l2.979,-3.047l0.412,-4.094l4.168,-8.883l4.369,-8.715l4.007,-8.605l3.968,-8.319l0.052,-3.809l3.073,-3.77l0.839,-4.555l4.401,-3.448l-0,-3.701l4.244,-5.88l0.1,-2.723l3.867,-5.309l0.536,-4.016l3.353,-4.446l0.106,-3.392l3.266,-4.002l0.876,-3.103l4.051,-5.37l0.449,-3.898l3.862,-4.746l4.248,-8.699l4.015,-8.371l4.424,-5.142l0.217,-3.956l3.974,-3.245l4.066,-6.932l4.621,-12.83l0.172,-7.9l-0.22,-22.901l-3.505,-19.502l-0.27,-19.843l-4.994,-21.691l0.22,-22.099l-4.231,-16.361l-0.103,-20.547l-4.642,-19.268l1.375,-9.555l0.071,-12.258l-4.145,-21.749l-0.489,-12.113l-4.66,-24.922l0.023,-7.588l0.652,-12.274l-4.085,-21.687l-0.838,-16.313l0.555,-24.695l3.849,-8.43l3.828,-3.809l4.801,-9.007l-0.107,-4.204l4.132,-4.58l2.973,-2.99l4.405,-9.321l5.304,-7.877l7.418,-12.946l4.698,-8.283l5.005,-7.421l7.371,-12.433l5.641,-9.402l6.613,-10.627l7.582,-9.415l5.7,-16.262l3.735,-5.956l8.441,-15.29l4.818,-10.451l8.8,-9.795l3.076,-9.769l4.413,-8.52l3.066,-2.656l4.583,-9.059l3.903,-7.289l5.044,-3.679l4.312,-8.413l4.267,-9.244l3.968,-5.58l3.125,-6.847l5.1,-8.699l3.881,-7.493l3.658,-5.184l4.41,-7.967l3.258,-2.951l0.832,-5.763l4.014,-4.948l3.579,-7.079l4.71,-4.6l9.766,-3.705l3.229,0l11.389,-4.344l5.208,-0.168l13.123,-4.454l14.951,-3.679l13.175,-3.54l12.143,-4.513l12.436,-3.211l13.004,-5.517l12.535,-3.621l13.321,-4.23l11.531,-3.755l13.221,-4.755l11.897,-4.203l12.071,-3.967l11.924,-4.248l18.926,-4.508l11.036,-4.226l12.315,-3.254l12.543,-4.687l12.462,-4.215l12.181,-4.109l8.275,-5.244l6.989,-3.981l12.919,0l164.105,83.584l8.781,1.694l80.588,-52.358l234.387,-0.562l162.77,128.048l9.539,-0l42.29,-25.233l25.674,-0.218l253.63,50.011l93.811,114.15l216.375,43.848l37.398,61.099l17.834,29.053l21.471,27.474l47.494,55.503l29.316,25.822l68.67,65.676l35.943,51.703l16.466,31.308l11.361,32.814l2.158,47.884l-1.709,36.428l-4.489,17.863l-0.55,10.487l-4.297,16.13l-4.801,23.006l-3.657,22.797l-3.713,17.085l-5.345,20.817l-3.079,16.728l-3.207,19.906l-6.129,16.744l1.355,60.203l3.736,41.033l5.364,37.928l3.674,43.264l3.162,52.661l1.134,186.136l-4.88,55.001l-3.434,30.198l-4.868,25.594l-4.672,21.381l-4.662,17.013l-2.82,19.131l-5.268,16.079l-3.856,13.441l-3.895,13.218l-3.638,13.395l-3.994,11.817l-5.334,13.824l-3.375,12.81l-4.503,12.336l-3.793,12.553l-3.668,11.79l-5.274,12.44l-3.396,12.282l-3.985,8.677l-4.328,11.467l-4.857,13.208l-3.931,12.848l-4.16,7.392l-4.236,12.404l-3.314,9.48l-5.514,12.012l-3.177,12.294l-4.414,8.826l-4.602,12.448l-5.126,11.658l-2.589,12.588l-4.868,7.86l-3.893,12.916l-4.845,8.249l-3.845,9.113l-3.602,9.116l-4.015,11.842l-4.302,7.241l-4.696,8.54l-4.397,8.776l-2.931,6.962l-5.214,13.931l-3.143,6.727l-4.842,10.315l-4.077,7.317l-3.733,9.195l-3.738,7.242l-4.46,11.229l-4.291,10.752l-4.724,11.192l-4.372,11.899l-3.777,13.541l-5.22,14.152l-3.712,12.003l-3.477,7.642l-0.189,15.286l-3.223,17.049l3.289,17.516l4.779,82.936l3.102,91.309l4.081,87.94l4.673,92.559l3.827,90.241l5.188,83.657l3.704,91.581l4.124,94.247l4.002,86.9l3.449,92.001l4.58,82.182l4.554,92.167l3.821,90.255l4.815,89.619l0.593,42.065l-174.89,2.692l-4.656,-69.91l-5.266,-99.319l-2.647,-109.279l-4.605,-103.737l-3.351,-107.213l-4.44,-99.995l-4.639,-108.275l-4.806,-105.516l-4.328,-102.691l-3.374,-108.357l-3.236,-97.505l-1.421,-227.106l42.449,-36.892l6.714,-11.869l8.836,-15.904l5.388,-13.887l3.697,-12.451l-0.154,-17.056l4.498,-19.364l-0.553,-31.435l4.488,-31.267l-0.126,-34.035l3.269,-7.695l1.838,-17.257l3.187,-12.43l4.665,-9.092l3.814,-11.041l4.586,-9.751l3.692,-10.782l2.781,-9.161l4.899,-11.75l5.186,-9.31l3.913,-10.495l4.072,-9.963l3.843,-7.394l4.792,-13.467l4.334,-13.498l2.727,-7.584l4.33,-7.368l4.917,-12.903l4.065,-9.157l3.495,-10.89l8.156,-16.898l8.938,-21.374l3.933,-16.542l4.28,-4.697l4.113,-11.498l4.535,-9.412l4.139,-12.266l0.381,-4.61l2.298,-2.494l1.335,-4.924l3.324,-3.495l4.77,-16.977l4.672,-12.68l4.211,-12.4l4.225,-12.902l4.513,-16.194l3.791,-8.879l0,-4.158l4.414,-15.529l-0.662,-5.02l4.494,-8.404l-0.062,-13.001l3.915,-11.574l-0.266,-18.047l4.444,-16.287l0.012,-33.545l0.346,-3.09l3.331,-7.051l0.345,-143.424l3.826,-55.799l0.312,-106.574l4.17,-18.422l3.562,-12.037l5.153,-18.275l4.634,-12.961l-0.972,-4.488l3.043,-6.369l0.798,-6.067l3.606,-10.733l1.584,-6.372l2.753,-11.509l0.27,-3.74l4.239,-11.17l0.963,-5.917l3.891,-12.877l-0.245,-8.725l3.76,-10.866l0.939,-5.891l4.048,-16.247l0.023,-8.425l3.817,-14.863l-0.561,-18.244l4.645,-7.258l-0.418,-20.579l0.145,-14.09l-3.82,-14.372l-0.623,-5.357l-3.156,-11.471l-4.631,-13.373l-4.236,-9.421l-4.35,-10.605l-4.259,-8.245l-7.903,-12.926l-3.895,-8.001l-8.651,-13.25l-0.273,-3.95l-4.013,-4.764l-8.554,-13.183l-7.539,-11.738l-1.653,-8.229l-7.5,-8.507l-3.433,-4.204l-4.164,-4.217l-4.012,-3.984l-1.982,-11.551l-11.339,-12.739l-14.639,-15.725l-2.39,-5.311l-3.316,-8.162l-8.323,-8.177l-8.252,-8.814l-4.372,-8.412l-4.25,-8.69l-12.245,-20.331l-3.618,-8.806l-3.724,-10.739l-5.697,-9.007l-3.362,-7.721l-3.308,-9.875l-5.205,-8.114l-3.795,-7.316l-3.775,-10.193l-3.521,-6.506l-5.778,-8.842l-8.438,-12.625l-3.866,-0.478l-3.899,-3.519l-12.516,-0.152l-12.063,-5.237l-4.644,0.165l-15.016,-4.089l-13.436,-3.736l-5.854,-0.071l-10.43,-3.674l-4.596,-0.217l-12.229,-3.532l-5.885,-0.723l-16.387,-3.786l-2.962,-0.039l-12.464,-3.753l-4.257,-0.343l-17.606,-4.14l-4.337,-0.115l-7.359,-3.59l-16.429,-1.077l-12.303,-2.742l-17.678,-4.124l-11.112,-4.273l-12.875,-1.26l-9.031,-0.176l-7.475,0.731l-8.951,1.347l-5.238,4.302l-19.587,15.257l-11.767,12.368l-9.276,20.524l-7.944,8.052l-8.894,8.745l-7.64,8.542l-3.999,2.845l-9.541,8.692l-4.447,8.898l-2.315,12.392l-0.788,2.947l-0.182,4.548l-3.977,25.194l-0.132,4.761l-3.705,20.556l-0.648,5.495l-4.362,20.313l0.156,3.965l-0.089,4.233l-4.307,20.562l-0.081,4.576l-3.479,19.396l-0.417,4.765l-0.051,3.897l-3.138,13.141l-0.337,8.235l-0.719,4.436l-0.237,4.518l-4.025,15.862l-0,3.847l-0.055,5.076l-3.479,15.87l0.329,9.851l-4.329,22.586l-0.019,6.124l-4.144,19.281l-0.029,4.48l-4.799,21.155l-0.278,8.476l-3.44,20.376l-0.297,3.681l-3.124,25.059l-0.513,4.253l-4.227,22.241l0,3.52l-4.303,20.545l-0.004,8.666l-4.38,20.066l0.723,8.628l-0.23,4.245l-4.362,5.043l0.337,2.741l3.564,4.45l3.557,3.54l12.058,16.248l13.766,18.398l3.265,3.784l9.175,11.947l11.747,4.684l34.518,0.34l61.705,7.847l20.695,-0.584l13.324,4.657l24.672,0.378l28.43,3.273l17.88,0.356l10.769,-3.678l13.331,-4.928l12.402,-15.745l5.296,-8.793l2.715,-12.487l4.847,-12.668l4.243,-8.254l2.722,-11.977l5.547,-8.348l4.542,-13.891l2.72,-6.157l4.165,-13.416l7.64,-20.351l9.492,-20.655l8.317,-21.599l4.275,-8.88l4.445,-11.096l3.322,-12.441l4.422,-9.35l3.884,-11.841l5.388,-8.682l3.831,-12.788l4.08,-8.065l3.607,-12.37l4.667,-8.426l3.754,-11.714l3.788,-9.548l3.386,-11.168l5.478,-9.51l4.516,-10.978l3.866,-13.657l-0.222,-2.656l-3.112,-14.027l-0.422,-8.243l-4.531,-16.832l-0.533,-3.05l-3.427,-16.98l-0,-4.254l-4.685,-17.509l0.179,-4.472l-3.775,-15.831l-0.105,-8.411l-4.957,-11.995l-3.593,-13.953l8.847,26.005l6.809,21.451l5.49,7.631l3.311,7.618l4.285,9.38l4.007,7.348l4.407,8.938l4.547,8.787l4.131,8.026l3.099,7.695l0.709,4.247l3.703,3.809l0.689,4.398l3.27,3.988l0.666,5.91l3.977,19.029l0.525,29.902l3.606,33.375l0.135,33.05l4.691,8.716l10.349,0.324l14.592,0.026l11.708,-0.593l8.54,-3.995l13.602,-0.238l16.198,0.26l35.601,-7.85l-16.335,7.963l-12.425,7.18l-11.672,9.297l-12.017,7.231l-9.125,1.124l-4.04,7.988l-11.159,4.553l-9.521,8.526l-3.509,3.266l-8.555,5.428l-3.299,2.524l-9.381,4.397l-7.772,3.867l-5.137,3.731l-2.341,9.917l6.679,3.522l8.988,0.465l15.379,4.192l25.311,-0.211l16.247,3.198l17.945,0.986l-8.567,5.119l-4.333,3.406l-4.736,0.955l-3.997,2.753l-8.651,4.389l-2.279,-0.076l-5.183,3.994l-8.911,4.683l-7.798,3.636l-3.063,0.432l-9.299,3.422l-8.139,4.088l-4.635,0.107l-12.17,4.942l-15.994,4.1l-3.99,-0.83l-13.419,4.355l-5.383,0.106l-2.824,0.628l-8.076,6.223l-0.281,6.183l-3.6,7.123l-3.886,8.715l-4.988,5.551l0.007,3.423l-4.235,4.965l-0.444,2.613l-4.346,5.47l-0.273,2.776l-2.705,4.196l-5.188,5.362l-0.001,2.717l-3.107,7.519l-5.474,12.041l-2.489,5.4l-5.431,8.943l-8.571,11.605l-3.198,7.227l-5.013,9.998l-4.098,8.889l-3.229,7.623l-8.584,4.591l-4.238,17.362l-5.43,9.491l1.641,12.451l-7.416,2.171l-5.322,-0.29l-7.925,4.108l-8.407,0.452l-5.125,4.868l-1.798,-0.207l-13.646,4.991l-13.846,3.192l-12.57,3.721l-15.844,4.084l-11.768,4.17l-13.817,5.023l-15.483,3.302l-11.571,4.242l-5.196,7.084l-0.352,5.975l3.11,7.404l5.05,9.491l0.006,5.118l4.363,7.408l2.961,6.333l1.481,6.355l3.033,6.2l5.758,13.096l4.104,9.206l2.011,7.527l5.3,10.84l7.34,13.587l9.045,13.396l4.943,4.595l8.069,12.982l3.196,3.179l10.176,13.58l2.941,3.354l8.958,13.875l2.483,1.943l9.429,12.3l12.987,16.135l8.202,13.752l3.614,3.901l4.524,4.539l0.697,0.808l8.441,7.196l-5.106,-3.333l-3.335,-3.863Zm-549.016,675.854l-0.704,88.943l-4.095,66.135l0.312,50.104l-4.498,56.955l0.311,67.474l-4.094,36.482l-0.568,91.818l-3.307,113.44l-3.683,116.483l-4.909,102.637l-5.33,91.643l-2.889,80.479l-4.105,86.268l-4.55,83.507l-3.529,77.414l-0.954,21.612l-3.095,71.058l-3.541,12.626l-2.16,29.701l-2.966,8.334l-0.619,11.035l-3.538,8.921l-1.464,11.535l-2.483,1.567l-1.581,11.702l-3.342,4.945l-0.245,-9.428l-0.001,-8.728l-2.342,-3.599l-1.39,-33.24l-4.602,-17.124l1.018,-65.846l3.006,-32.703l1.2,-63.322l4.196,-37.202l0.353,-41.27l3.59,-38.159l-0.429,-45.615l4.547,-41.286l0.104,-33.264l3.683,-32.735l-0.246,-46.314l4.735,-41.262l0.354,-33.617l4.163,-49.551l-0.926,-21.717l4.69,-34.418l-0.133,-22.955l4.415,-41.6l-0.149,-25.292l4.319,-33.269l-0.659,-29.262l4.317,-28.309l0.08,-37.702l4.143,-12.736l-0.022,-44.99l4.641,-29.323l0.044,-30.088l3.179,-24.267l0.594,-38.629l4.246,-27.923l0.215,-33.74l3.749,-40.363l-0.261,-17.382l4.22,-42.752l0.551,-15.959l3.73,-40.031l0.438,-18.319l4.266,-37.527Zm149.166,148.248l-0.499,10.653l-3.625,21.361l-0.384,11.5l-3.794,21.253l-0.314,8.742l-0.191,11.958l-3.446,12.658l-0.371,8.819l-0.587,12.691l-3.704,11.854l0.192,21.286l-4.114,15.403l0.034,17.135l-4.293,20.955l-3.228,41.069l-1.211,46.292l-4.012,54.344l-0.891,20.423l0.891,83.401l-0,16.953l3.703,37.378l0.908,15.228l2.332,4.049l1.45,16.573l4.449,13.606l3.688,-5.291l4.469,-10.912l3.958,-17.84l3.717,-15.797l0.49,-8.522l4.609,-17.065l-0.038,-12.357l3.366,-23.966l0.838,-25.967l-0.297,-17.094l4.595,-12.469l0.381,-36.719l-0.763,-33.203l-0.02,-159.612l0.14,-30.882l-2.853,-30.844l-1.397,-11.809l0.197,-23.753l0.371,-9.643l-0.686,-32.627l-4.06,-19.212Zm-398.583,-305.25l12.282,-4.505l11.848,-4.355l12.557,-4.121l13.28,-4.551l8.464,-0.423l10.914,-3.58l21.323,-3.634l16.084,0.28l17.636,-4.635l16.643,-3.843l24.9,-4.041l12.007,0.422l17.498,-4.509l12.669,0l17.639,-3.694l31.48,-4.692l32.438,-3.654l46.442,-4.381l17.405,-0.111l36.099,-4.047l133.814,-0l19.51,3.614l13.873,-0.118l11.759,4.96l9.079,-0.373l8.954,4.539l2.855,0.04l13.904,3.762l6.471,4.884l8.96,7.835l-0,4.778l4.29,3.677l13.399,4.352l15.23,-0.497l4.16,0.254l24.97,3.888l47.019,8.34l15.739,-3.719l1.086,-4.577l3.049,-5.443l0.208,-7.817l-0,-2.943l3.927,-8.143l0.268,-4.753l3.599,-8.706l0.863,-7.834l3.91,-12.448l0.038,-5.21l3.217,-6.747l5.563,-22.021l0.056,-8.448l2.939,-16.181l0.699,4.768l-0.483,12.442l-2.97,17.64l-1.378,19.492l-4.098,15.671l0.207,13.369l-0.1,8.409l-4.495,8.083l1.494,25.522l4.363,8.293l2.603,0.06l20.904,-0.007l13.4,4.105l32.896,-1.055l20.48,4.471l8.221,-0l0.468,13.433l-4.602,16.145l-0.353,29.491l-2.98,0.078l-8.673,-0.424l-12.299,-4.184l-13.305,-0.407l-11.443,-4.03l-18.382,-0.389l-18.381,-3.964l-6.901,0.482l-16.069,-1.151l-3.776,8.531l-0.175,8.622l0.464,13.307l-3.165,7.366l-1.436,20.997l-2.761,12.74l0,13.426l-5.76,16.35l0.63,12.06l-4.202,4.299l0.288,11.743l-28.714,0.653l-0.292,-13.014l3.904,-11.669l0.23,-9.477l4.007,-6.658l0.033,-14.614l-0.109,-2.73l4.909,-12.648l-0.166,-5.307l4.527,-6.517l-0.238,-13.053l4.282,-7.919l-0.859,-11.049l4.347,-5.294l-0.354,-10.033l-7.478,-6.974l-4.175,-4.089l-4.16,-0.404l-3.323,-4.099l-5.36,3.299l-8.928,0.091l-3.254,-2.617l-16.979,-1.086l-24.975,-4.436l-28.225,-4.133l-51.181,-4.131l-32.536,-4.098l-33.148,-4.177l-9.055,-0.175l-21.803,-5.189l-19.832,0.921l-6.637,-7.613l-18.748,3.926l-23.266,0.023l-13.305,-4.257l-38.168,-0.551l-12.182,-3.255l-15.654,-0.952l-50.458,0.435l-12.84,-4.046l-228.45,0.439l-32.634,3.822Zm805.143,-40.799l4.734,-17.887l5.51,-11.453l2.9,-8.308l5.166,-13.247l2.805,-12.525l4.202,-8.943l4.214,-6.912l4.643,-9.711l8.268,-19.845l4.563,-9.745l2.831,-5.68l4.839,-9.461l4.71,-8.994l3.52,-10.919l4.374,-9.736l4.385,-6.759l4.136,-9.144l4.172,-8.837l3.926,-6.73l4.188,-9.489l0,-3.791l3.598,-4.111l0,-5.299l3.669,-2.475l1.377,-5.318l2.464,-3.627l0.531,-4.133l3.649,-3.814l0.495,-4.994l4.888,-4.555l-0,-3.29l4.453,-5.132l0.057,-3.305l2.523,-3.753l0.734,-5.291l3.84,-3.455l0.743,-5.361l3.592,-2.855l0.807,-3.889l2.836,-3.185l1.595,-4.417l5.377,-7.058l2.265,-6.202l4.547,-9.462l4.471,-7.524l4.026,-5.165l-0.059,-3.476l3.093,-4.128l0.571,-3.955l4.91,-4.733l0,-4.314l3.828,-3.027l0.215,-5.316l3.36,-3.204l3.612,-5.115l0.935,-4.224l4.628,-8.033l4.236,-6.987l4.001,-5.453l3.547,-7.271l5.29,-9.475l2.58,-7.54l4.492,-9.025l4.527,-8.572l-3.316,13.017l-1.079,4.041l-3.753,16.114l-4.472,14.389l-0,2.767l-3.301,16.79l-4.465,16.124l0,5.858l-4.152,7.881l-1.831,7.834l-3.431,8.474l-0.292,6.527l-3.09,6.166l-0.392,8.627l-3.136,3.387l-1.107,9.084l-3.414,7.159l-1.646,8.594l-3.484,6.144l-0.97,7.773l-2.768,5.919l0.538,5.397l-3.944,6.378l-0.903,5.612l-4.192,12.555l-2.63,8.945l-2.065,7.704l-3.776,8.947l-0.105,3.244l-3.174,8.662l-1.375,7.323l-2.404,5.268l-0.279,4.377l-4.561,6.817l-0.198,9.314l-3.363,5.235l-1.836,7.172l-1.518,3.852l-1.684,5.504l-3.095,11.452l-3.563,11.661l-4.579,12.76l-4.866,11.217l-3.894,10.588l-3.508,11.314l-4.546,12.799l-4.059,12.801l-0.868,8.792l-3.415,4.775l-1.495,7.299l-3.223,8.029l-2.435,8.294l-4.747,0.886l-13.782,-1.11l-15.414,-3.818l-14.189,0.129l-4.903,-4.067l-11.015,-0.344l-9.225,1.202Zm-491.527,-338.901l-0.978,1.098l-5.735,8.62l-3.972,11.6l-4.046,10.537l0,2.429l-7.249,12.262l-4.696,7.73l-0.924,5.533l-3.784,3.178l-0,3.437l-4.947,8.53l0,4.972l-3.428,4.81l-0.283,4.869l-3.634,6.213l-3.628,9.309l0,2.639l-4.298,9.424l-0.071,4.536l-4.306,5.336l-0.156,4.287l-4.415,7.079l-3.403,7.48l-1.183,4.637l-4.09,12.99l-4.122,7.925l-0.318,3.392l-3.306,8.289l-3.683,12.698l-3.744,12.547l-5.394,10.092l-0.717,7.674l-3.08,4.581l-0.912,7.059l-9.566,4.171l-15.519,3.843l-16.729,5.271l-12.259,3.957l-16.013,4.286l-12.341,3.891l-16.497,4.759l-12.154,3.864l-16.453,3.982l-13.525,3.504l-16.651,4.653l-16.547,4.228l-13.778,4.767l-10.625,3.456l-4.508,0.051l-29.645,8.231l-12.981,5.113l-16.576,2.315l-24.537,5.395l5.043,0.097l28.585,-4.16l25.687,-5.157l15.973,-3.631l9.254,-0.724l11.677,-3.396l12.911,-0.321l12.112,-4.268l15.556,0.052l12.361,-4.773l8.476,-0.083l16.581,-4.616l15.348,1.038l7.722,-4.33l10.401,0l12.691,-3.896l8.091,-0.052l16.399,-4.005l8.111,-0.332l12.627,-4.65l8.975,0.07l17.119,-3.806l8.462,-0.217l11.469,-3.218l9.957,-0.577l11.441,-4.467l9.267,0.373l8.853,-4.271l10.917,-0.076l8.488,-3.912l12.129,0.334l15.982,-3.957l12.922,-4.467l5.027,-0.508l12.739,-7.251l3.473,-7.557l-0.086,-14.336l-7.733,3.983l-11.712,0.584l-13.184,0.665l-16.067,4.598l-17.566,-0.292l-15.853,-3.906l-0.993,-10.07l4.22,-14.031l0.264,-10.999l4.362,-14.997l-0.63,-14.022l4.505,-15.797l-0.555,-16.592l4.945,-12.579l-0.167,-20.067l3.858,-8.549l0.16,-13.561l4.509,-16.374l-0.166,-7.755l0.819,-8.613l3.611,-12.424l0.427,-15.292l1.612,-6.389l1.89,-2.122l-0,-5.369l-1.89,7.491Zm-164.28,-1055.3l-0.046,4.387l-3.9,12.737l9.018,8.153l9.5,0.522l9.978,3.06l4.302,0.862l8.986,4.006l12.556,4.255l6.624,2.923l9.152,5.642l8.85,8.795l2.836,2.466l8.79,8.615l4.192,9.826l4.184,10.649l4.771,16.461l0.007,55.618l-4.978,24.99l-3.352,11.539l-4.069,13.247l-4.43,13.3l-5.307,12.147l-2.843,6.944l-4.026,8.729l-3.7,8.186l-4.912,5.177l-13.227,20.012l-15.324,17.661l-8.304,16.405l-13.38,7.479l-4.531,8.363l-7.212,4.755l-4.933,8.154l-3.444,15.101l-1.229,9.723l-3.335,11.376l0.211,13.658l-4.168,15.467l0.766,4.939l-4.799,12.688l0.265,12.999l-5.373,14.859l1.422,6.427l-3.861,14.6l-0.873,12.553l8.984,12.859l36.773,42.642l3.784,2.17l20.163,22.297l4.135,-0.378l8.829,7.933l21.266,-0.009l15.11,4.379l23.226,-0.012l14.487,4.472l21.138,-0.269l20.273,4.121l14.158,0.002l16.039,3.97l21.254,-0.027l16.399,-0.447l3.661,-3.041l7.657,-4.448l5.944,-4.267l7.66,-3.859l12.267,-8.72l8.337,-4.193l8.348,-4.691l3.725,-2.602l8.194,-5.442l3.403,-2.92l1.583,-13.658l0.454,-8.626l-4.186,-14.891l-0.897,-29.899l-3.951,-25.059l0.14,-38.424l4.921,-15.338l0,-6.431l3.678,-9.548l-0.153,-5.514l5.189,-16.748l-0.791,-7.764l3.941,-12.492l4.609,-19.921l2.261,-17.775l0.602,-4.501l4.321,-16.558l0.216,-7.204l3.243,-8.643l0.57,-12.503l5.011,-8.683l-0,-8.679l3.721,-11.173l0.304,-9.758l4.301,-11.579l-0.467,-8.325l4.98,-12.692l-0.049,-7.457l4.35,-8.633l-0.087,-10.003l3.904,-10.727l-0.411,-9.441l4.263,-13.394l0.046,-6.284l3.44,-8.642l0.814,-12.344l3.756,-11.16l0.279,-4.628l4.516,-13.048l0.157,-7.14l2.87,-9.927l0.283,-12.358l4.062,-14.642l0.047,-7.151l5.384,-7.963l3.368,-7.445l3.662,-4.069l3.884,-3.715l4.295,-5.41l3.865,-3.678l5.136,-5.723l6.792,-9.738l7.452,-7.034l24.347,-28.251l12.132,-13.4l7.403,-11.111l7.724,-7.966l19.84,-21.209l1.594,-7.333l0,-4.972l-4.391,-12.795l-8.6,-12.433l-8.631,-12.877l-7.571,-13.17l-3.336,-5.062l-5.552,-10.547l-7.336,-7.062l-4.867,-0.454l-7.173,-4.218l-8.204,-0.266l-12.878,-4.853l-9.314,0.104l-12.03,-4.485l-4.813,0.078l-11.454,-4.108l-4.83,0l-11.602,-4.129l-3.629,0.074l-18.694,-3.709l-1.625,0l-13.972,-4.675l-4.416,-0.251l-11.124,-3.51l-6.176,-0l-11.038,-4.328l-9.177,-0.686l-12.258,-3.006l-12.659,-3.809l-4.099,-0.047l-17.224,-4.195l-3.014,-0.765l-17.671,5.011l-11.911,3.791l-3.879,3.709l-8.545,4.481l-12.82,7.65l-8.342,5.275l-8.376,3.576l-6.635,4.553l-9.25,3.607l-2.809,1.945l-7.915,4.786l-8.96,4.789l-10.59,5.081l-7.707,4.106l-12.706,8.448l-8.696,4.79l-8.564,3.92l-6.751,4.438l-8.386,4.153l-12.698,6.859l-9.195,4.885l-8.169,8.732l-2.744,8.394l-0.683,8.973l-5.087,15.3l-4.606,17.63l-3.695,18.5l-4.004,13.6l-4.118,13.402l0,3.624l-3.016,11.4l-0.368,4.664l-4.581,12.937l-0,3.61l-3.622,12.972Zm-852.054,-129.27l3.879,8.549l3.135,7.631l4.121,14.312l3.701,6.779l4.689,7.765l5.054,13.105l4.399,12.518l3.829,8.647l5.027,12.68l7.265,16.751l3.839,11.898l0.129,4.223l5.277,8.739l10.46,12.797l4.782,-4.054l5.384,-5.123l2.765,-3.058l4.246,-4.437l5.359,-4.557l2.753,-3.605l5.285,-4.873l2.992,-3.604l3.556,-3.48l6.077,-5.886l3.868,-3.401l3.949,-3.881l3.939,-4.805l4.504,-5.388l4.23,-2.509l3.9,-4.334l3.525,-3.742l13.019,-12.415l19.782,-12.744l5.667,-4.709l12.694,-4.015l8.658,-4.31l7.724,-2.486l7.556,-4.858l13.507,-3.146l12.89,-5.442l12.514,-3.642l11.397,-4.7l17.189,-3.5l24.159,-4.509l16.8,-3.631l15.545,-0.481l13.648,3.193l12.352,5.006l21.228,12.913l15.81,7.146l5.656,-4.056l-0.93,-8.013l-0.377,-9.084l0.164,-31.358l-3.24,-27.85l-1.474,-15.049l-3.025,-24.769l0.296,-20.14l-3.901,-17.638l-1.251,-16.616l0.873,-17.413l-4.182,-28.294l0.129,-16.296l-4.138,-5.704l-17.524,-11.025l-7.512,-4.293l-7.932,0.393l-12.67,4.374l-9.042,0.232l-13.024,3.212l-20.116,4.454l-25.32,4.669l-13.713,3.969l-23.519,4.291l-16.002,4.417l-16.873,3.607l-22.128,3.996l-24.255,3.907l-32.323,3.863l-8.454,17.741l-8.941,12.333l-4.094,4.301l-8.664,12.644l-3.775,3.242l-8.123,12.921l-5.6,5.054l-6.642,11.664l-8.762,12.024l-12.586,17.137l-4.215,3.53l-4.558,10.035l-7.729,11.125l-16.841,16.761l-0.228,4l-7.662,12.315l-3.83,16.06Zm498.999,-137.5l-0.247,42.842l-3.896,55.914l-1.069,56.922l-3.909,54.178l8.233,7.281l17.919,8.995l2.183,3.487l9.606,4.958l7.177,2.954l9.372,4.365l8.066,4.844l3.827,3.694l14.339,3.825l53.106,-0.129l16.463,5.114l25.331,-0.853l19.085,4.741l14.628,-0l14.685,4.193l10.173,-0.101l19.057,3.985l5.259,0.158l19.779,3.897l5.377,-0.252l10.836,0.288l5.608,-4.625l-0.047,-2.923l4.423,-9.151l2.787,-4.261l1.344,-4.059l3.588,-3.522l0.636,-6.177l3.68,-7.01l3.755,-7.619l3.942,-8.752l4.41,-9.397l0.346,-7.142l4.24,-7.952l4.413,-9.12l4.139,-9.146l4.526,-11.081l3.827,-8.907l4.188,-12.508l3.852,-8.898l3.056,-8.68l9.626,-15.171l3.368,-12.638l5.843,-13.37l2.667,-7.522l4.095,-9.01l1.475,-3.901l3.521,-7.959l7.815,-15.696l0.158,-4.593l4.291,-5.402l-0,-2.595l2.796,-9.385l5.701,-8.812l0,-3.032l-0.392,-12.67l-2.891,-3.25l-20.999,-29.855l-5.69,-12.137l-8.315,-4.316l-15.502,-0.073l-12.177,0.267l-20.813,-5.403l-17.221,0.642l-16.362,-4.564l-18.661,-0.532l-24.169,-3.655l-17.042,-0.544l-19.56,-4.243l-15.914,0.515l-21.761,-3.889l-16.473,-0.157l-8.228,4.075l-16.913,7.74l-21.089,9.738l-4.374,3.624l-3.611,0.146l-3.913,3.979l-9.416,5.191l-2.924,-0l-9.282,4.039l-7.978,3.005l-8.312,4.886l-8.712,3.337l-9.28,5.441l-7.446,3.772l-7.439,4.528l-7.974,3.252l-12.616,11.827Z" style="fill:#241f20;"/>
  </g>
</svg>